<svg width="30" height="24" viewBox="0 0 30 24" fill="none" xmlns="http://www.w3.org/2000/svg">
<path d="M2.8591 21.599C1.15367 19.7688 0.238037 17.7161 0.238037 14.3886C0.238037 8.53322 4.30623 3.28518 10.2223 0.69043L11.7008 2.99576C6.1789 6.01376 5.09934 9.93014 4.66884 12.3994C5.55799 11.9343 6.72198 11.7721 7.8628 11.8791C10.8498 12.1585 13.2043 14.6362 13.2043 17.7161C13.2043 19.269 12.5937 20.7583 11.5069 21.8564C10.4201 22.9545 8.94609 23.5714 7.40912 23.5714C6.55915 23.5639 5.71915 23.3856 4.93801 23.047C4.15686 22.7084 3.45018 22.2162 2.8591 21.599ZM19.4167 21.599C17.7112 19.7688 16.7956 17.7161 16.7956 14.3886C16.7956 8.53322 20.8638 3.28518 26.7798 0.69043L28.2584 2.99576C22.7365 6.01376 21.6569 9.93014 21.2264 12.3994C22.1156 11.9343 23.2796 11.7721 24.4204 11.8791C27.4074 12.1585 29.7618 14.6362 29.7618 17.7161C29.7618 19.269 29.1513 20.7583 28.0645 21.8564C26.9777 22.9545 25.5037 23.5714 23.9667 23.5714C23.1167 23.5639 22.2767 23.3856 21.4956 23.047C20.7144 22.7084 20.0078 22.2162 19.4167 21.599Z" fill="#B0A1C2"/>
</svg>
