<svg width="50" height="50" viewBox="0 0 50 50" fill="none" xmlns="http://www.w3.org/2000/svg">
<circle cx="21.9734" cy="25.4734" r="20.9297" stroke="#AC49E1" stroke-width="1.08726"/>
<circle cx="21.9739" cy="25.4735" r="16.5807" stroke="#AC49E1" stroke-width="1.08726"/>
<path d="M25.742 6.54606C29.0249 7.19973 32.0814 8.69605 34.6112 10.8881C37.141 13.0801 39.0572 15.8924 40.1715 19.0489" stroke="#AC49E1" stroke-width="4.34904"/>
<path d="M26.0296 15.1807C24.8762 15.1807 23.7701 15.6389 22.9544 16.4545C22.1388 17.2701 21.6807 18.3763 21.6807 19.5297C21.6807 20.6831 22.1388 21.7893 22.9544 22.6049C23.77 23.4205 24.8763 23.8787 26.0296 23.8787C27.183 23.8787 28.2892 23.4205 29.1048 22.6049C29.9204 21.7893 30.3786 20.6831 30.3786 19.5297C30.3786 18.7663 30.1777 18.0163 29.796 17.3551C29.4143 16.694 28.8652 16.145 28.2041 15.7633C27.543 15.3816 26.793 15.1807 26.0296 15.1807L26.0296 15.1807ZM26.0296 23.009C25.1069 23.009 24.2219 22.6424 23.5695 21.9899C22.917 21.3375 22.5504 20.4525 22.5504 19.5298C22.5504 18.6071 22.917 17.7221 23.5695 17.0697C24.2219 16.4172 25.1069 16.0506 26.0296 16.0506C26.9524 16.0506 27.8374 16.4172 28.4898 17.0697C29.1423 17.7221 29.5089 18.6071 29.5089 19.5298C29.5089 20.1405 29.3481 20.7405 29.0427 21.2694C28.7373 21.7983 28.2981 22.2375 27.7692 22.5429C27.2403 22.8483 26.6403 23.009 26.0296 23.009L26.0296 23.009Z" fill="#AC49E1"/>
<path d="M26.8998 19.5295C26.8998 20.0099 26.5104 20.3993 26.03 20.3993C25.5496 20.3993 25.1602 20.0099 25.1602 19.5295C25.1602 19.0491 25.5496 18.6597 26.03 18.6597C26.5104 18.6597 26.8998 19.0491 26.8998 19.5295Z" fill="#AC49E1"/>
<path d="M44.5229 1.25833C44.518 1.25675 44.5135 1.25457 44.5083 1.25342C44.5032 1.25216 44.4978 1.25178 44.4928 1.25069C44.4811 1.24818 44.4691 1.24654 44.4572 1.24441C44.389 1.23147 44.3201 1.22317 44.2515 1.22317C44.1715 1.22317 44.093 1.23256 44.0157 1.24894H44.0156C43.9804 1.25648 43.9457 1.26554 43.911 1.27636C43.9046 1.27838 43.8979 1.28051 43.8914 1.28264C43.8605 1.29274 43.8302 1.30415 43.8 1.31682C43.7966 1.31824 43.7932 1.31917 43.7898 1.32064C43.7887 1.32102 43.7881 1.32173 43.7872 1.32211C43.1993 1.57652 42.7231 2.30621 42.4808 3.28729C42.2384 2.30641 41.7623 1.57681 41.1744 1.32225C41.1733 1.32176 41.1726 1.32105 41.1715 1.32067C41.1679 1.31909 41.1642 1.3181 41.1605 1.31652C41.1307 1.30402 41.1006 1.29271 41.0702 1.28272C41.0635 1.28054 41.0568 1.27835 41.0501 1.27628C41.0158 1.26557 40.9809 1.25645 40.9458 1.24897H40.9457C40.8685 1.23254 40.7899 1.22314 40.71 1.22314C40.6414 1.22314 40.5724 1.23144 40.5041 1.24439C40.4924 1.24652 40.4803 1.24815 40.4686 1.25067C40.4635 1.25187 40.4583 1.25225 40.4532 1.2534C40.4481 1.2546 40.4436 1.25678 40.4386 1.25831C39.9295 1.38095 39.5498 1.8391 39.5498 2.38526C39.5498 3.02497 40.0702 3.54563 40.7102 3.54563C40.8061 3.54563 40.8838 3.46787 40.8838 3.37193C40.8838 3.27593 40.8061 3.19828 40.7102 3.19828C40.2619 3.19828 39.8972 2.83357 39.8972 2.38526C39.8972 1.99368 40.1754 1.666 40.5446 1.58928C40.5474 1.58868 40.5503 1.58835 40.5532 1.5878C40.6041 1.57776 40.6564 1.57224 40.7102 1.57224C40.7928 1.57224 40.8736 1.58475 40.9516 1.60904C41.6891 1.84532 42.2775 3.14017 42.3062 4.66668L42.3062 8.1135C42.3062 8.20955 42.3839 8.2872 42.4799 8.2872C42.4802 8.2872 42.4805 8.28704 42.4808 8.28704C42.4811 8.28704 42.4814 8.2872 42.4817 8.2872C42.5776 8.2872 42.6553 8.20955 42.6553 8.1135V4.66934C42.6835 3.14157 43.2722 1.84529 44.0102 1.60904C44.088 1.5848 44.1689 1.57224 44.2516 1.57224C44.3053 1.57224 44.3576 1.57781 44.4085 1.5878C44.4114 1.58835 44.4143 1.58868 44.417 1.58928C44.7862 1.66589 45.0645 1.99369 45.0645 2.38526C45.0645 2.83357 44.6998 3.19828 44.2515 3.19828C44.1555 3.19828 44.0778 3.27604 44.0778 3.37193C44.0778 3.46782 44.1556 3.54563 44.2515 3.54563C44.8912 3.54563 45.4118 3.02508 45.4118 2.38526C45.4117 1.8391 45.0318 1.38106 44.5229 1.25831L44.5229 1.25833Z" fill="#AC49E1"/>
</svg>
