<svg width="28" height="26" viewBox="0 0 28 26" fill="none" xmlns="http://www.w3.org/2000/svg">
<path d="M14.0004 6.04389C14.0384 6.34799 13.9319 6.95617 13.2021 6.95617C12.4723 6.95617 12.2138 6.34799 12.1758 6.04389C12.1378 5.54974 12.4495 4.56144 14.0004 4.56144C15.939 4.56144 16.1671 9.23688 13.2021 9.23688C10.2371 9.23688 10.0091 5.58775 11.1494 4.21933C12.2898 2.85091 14.6845 2.39477 16.281 4.21933C17.8775 6.04389 17.3073 9.23684 15.0266 10.2632C14.6061 10.4524 14.1855 10.5757 13.7722 10.6403M18.6757 10.8333L17.9915 10.2632C18.4658 9.45398 19.1532 7.75588 19.0883 6.04389M19.0883 6.04389C19.0648 5.42366 18.9425 4.8016 18.6757 4.21933C18.3749 3.56315 17.9496 2.98563 17.4375 2.50877M19.0883 6.04389H20.0441M17.4375 2.50877C15.8137 0.996729 13.3168 0.496807 11.1494 1.71053C10.8481 1.87923 10.5774 2.07086 10.3355 2.2807M17.4375 2.50877L18.2358 1.71053M14.0004 0.912281V0M10.3355 2.2807L9.65133 1.59649M10.3355 2.2807C9.20665 3.26 8.70533 4.63596 8.65374 5.92982M8.65374 5.92982C8.61176 6.98231 8.86737 7.98048 9.32484 8.66667C9.54953 9.00371 9.81851 9.30976 10.123 9.57609M8.65374 5.92982H7.61426M10.123 9.57609L9.43597 10.2632M10.123 9.57609C11.079 10.4122 12.3854 10.8569 13.7722 10.6403M13.7722 10.6403V11.8596" stroke="#401D73"/>
<path d="M11.9474 25.3157V21.7277C11.9474 19.5395 10.9022 17.4828 9.1345 16.1929C8.25068 15.548 7.72807 14.5196 7.72807 13.4255V10.7762C7.72807 9.86304 6.98777 9.12274 6.07456 9.12274C5.16135 9.12274 4.42105 9.86304 4.42105 10.7762V12.7719M4.42105 12.7719C4.42105 17.0596 5.48538 19.1198 6.01754 19.614M4.42105 12.7719V4.67537C4.42105 3.73067 3.65522 2.96484 2.71053 2.96484C1.76583 2.96484 1 3.73067 1 4.67537V9.12274M6.01754 25.3157L4.49787 23.1744C2.22237 19.968 1 16.1335 1 12.2017" stroke="#401D73"/>
<path d="M16.0527 25.3157V21.7277C16.0527 19.5395 17.0979 17.4828 18.8656 16.1929C19.7494 15.548 20.272 14.5196 20.272 13.4255V10.7762C20.272 9.86304 21.0123 9.12274 21.9255 9.12274C22.8387 9.12274 23.579 9.86304 23.579 10.7762V12.7719M23.579 12.7719C23.579 17.0596 22.5147 19.1198 21.9826 19.614M23.579 12.7719V4.67537C23.579 3.73067 24.3449 2.96484 25.2896 2.96484C26.2343 2.96484 27.0001 3.73067 27.0001 4.67537V10.7056C27.0001 15.6106 25.4752 20.3943 22.6364 24.3944L21.9826 25.3157" stroke="#401D73"/>
</svg>
