<svg width="26" height="26" viewBox="0 0 26 26" fill="none" xmlns="http://www.w3.org/2000/svg">
<path d="M5.27674 16.035L5.12889 16.1025C2.59109 17.2609 0.962891 19.794 0.962891 22.5837C0.962891 23.2395 1.49452 23.7711 2.15032 23.7711H3.46771M5.27674 16.035C5.32313 16.5976 5.69421 17.7229 6.80746 17.7229C7.92071 17.7229 8.19903 16.5976 8.19903 16.035M5.27674 16.035V15.2515M8.19903 16.035L10.1472 16.5976M8.19903 16.035V15.3205M10.1472 16.5976C10.2864 15.8943 11.01 14.4877 12.7912 14.4877C13.1038 14.4877 13.3811 14.531 13.6261 14.6063M10.1472 16.5976C10.1024 16.9147 10.0841 17.3082 10.1182 17.7229M10.1182 17.7229C10.9623 16.8083 13.1933 15.528 15.3648 17.7229M10.1182 17.7229C10.1976 18.6898 10.5619 19.7714 11.5388 20.2645M15.3648 17.7229C15.3175 18.7321 14.9645 19.8662 13.9044 20.3259M15.3648 17.7229C15.3814 17.3675 15.3601 17.0277 15.3185 16.7382M8.05987 23.7711C8.05987 24.4703 8.62664 25.0371 9.32579 25.0371H10.9821M8.05987 23.7711C8.05987 23.1724 8.41242 22.6297 8.95951 22.3864L11.5388 21.2393M8.05987 23.7711H3.46771M11.5388 21.2393V20.2645M11.5388 21.2393C11.5851 21.6613 11.9006 22.5052 12.7912 22.5052C13.6818 22.5052 13.9044 21.6613 13.9044 21.2393M11.5388 20.2645C11.8779 20.4357 12.2908 20.536 12.7912 20.536C13.2285 20.536 13.5964 20.4594 13.9044 20.3259M13.9044 21.2393V20.3259M13.9044 21.2393L16.3508 22.3726C16.8956 22.625 17.2442 23.1707 17.2442 23.7711M14.461 25.0371H15.9783C16.6774 25.0371 17.2442 24.4703 17.2442 23.7711M3.09342 11.3933C3.06907 11.1913 3.05522 11.0018 3.05024 10.8307C2.86469 9.23653 3.35638 6.04829 6.80746 6.04829C10.2586 6.04829 10.7503 9.23653 10.5647 10.8307C10.5597 11.0018 10.5458 11.1913 10.5215 11.3933M3.09342 11.3933C3.91397 11.2526 4.85927 10.8307 5.55506 9.70543C5.99013 10.268 7.59251 11.3933 10.5215 11.3933M3.09342 11.3933C3.24932 12.6865 3.83546 14.4905 5.27674 15.2515M10.5215 11.3933C10.3606 12.7274 9.74203 14.6049 8.19903 15.3205M5.55506 13.0812C5.97252 13.5032 7.05795 14.0939 8.05987 13.0812M5.27674 15.2515C5.707 15.4788 6.21347 15.613 6.80746 15.613C7.3386 15.613 7.79976 15.5056 8.19903 15.3205M3.46771 20.9579V23.7711M17.2442 23.7711H21.8364M20.1665 16.1757C20.0738 16.6913 19.6377 17.7229 18.6358 17.7229C17.5225 17.7229 17.105 16.6913 16.9659 16.1757M20.1665 16.1757V14.703M20.1665 16.1757L23.0888 17.2238M16.9659 16.1757L15.3185 16.7382M16.9659 16.1757V14.633M15.3185 16.7382C15.3115 16.6899 15.304 16.643 15.296 16.5976C15.2196 16.0178 14.7773 14.9598 13.6261 14.6063M16.9659 14.633C17.4193 14.8939 17.9699 15.0504 18.6358 15.0504C19.2396 15.0504 19.7451 14.9217 20.1665 14.703M16.9659 14.633C15.9712 14.0605 15.4451 12.9851 15.1989 11.9559M20.1665 14.703C21.229 14.1517 21.7572 13.0287 21.9825 11.9559M13.6261 14.6063C14.1504 14.1917 15.1989 13.0812 15.1989 11.9559M15.1989 11.9559C15.1053 11.564 15.0521 11.1789 15.0292 10.8307M21.9825 11.9559C22.2121 13.0774 23.1445 15.3205 25.037 15.3205C24.9905 15.9549 24.536 17.2238 23.0888 17.2238M21.9825 11.9559C22.0649 11.564 22.1068 11.1789 22.1196 10.8307M23.0888 17.2238C23.9235 17.5232 24.4804 18.3144 24.4804 19.2012V22.613C24.4804 23.2526 23.9618 23.7711 23.3221 23.7711H21.8364M15.0292 10.8307C15.0159 10.6287 15.0127 10.4391 15.0177 10.268C15.0177 9.14276 15.0177 6.04829 18.6358 6.04829C21.5302 6.04829 22.1611 8.86144 22.1147 10.268C22.1247 10.4391 22.127 10.6287 22.1196 10.8307M15.0292 10.8307C15.6283 10.9244 17.1885 10.7463 18.6358 9.28341C19.0102 9.79913 20.231 10.8307 22.1196 10.8307M21.8364 23.7711V21.2393M12.2346 25.0371H13.2087M12.9303 6.47026L15.7958 3.57396C16.4441 2.91869 16.4441 1.8637 15.7958 1.20843C15.1376 0.543153 14.0628 0.543153 13.4047 1.20843L12.9303 1.68791L12.4559 1.20843C11.7978 0.543153 10.7231 0.543153 10.0649 1.20843C9.41668 1.8637 9.41668 2.91869 10.0649 3.57396L12.9303 6.47026Z" stroke="#401D73"/>
</svg>
