<svg width="26" height="26" viewBox="0 0 26 26" fill="none" xmlns="http://www.w3.org/2000/svg">
<path d="M0.962891 5.34151C1.63161 5.21993 3.11497 5.45094 3.69858 7.34768L4.71096 10.2657M25.037 10.2657L23.7286 13.3499C22.9738 15.1288 21.2285 16.2842 19.2961 16.2842H10.225C8.17409 16.2842 6.34832 14.9852 5.67611 13.0476L4.71096 10.2657M25.037 10.2657H11.9056M25.037 10.2657C25.037 2.67875 18.4713 0.903589 15.1885 0.964383L11.9056 10.2657M4.71096 10.2657H11.9056" stroke="#401D73"/>
<path d="M10.0819 24.8562C11.7942 24.8562 13.1823 23.4681 13.1823 21.7557C13.1823 20.0434 11.7942 18.6553 10.0819 18.6553C8.36956 18.6553 6.98145 20.0434 6.98145 21.7557C6.98145 23.4681 8.36956 24.8562 10.0819 24.8562Z" stroke="#401D73"/>
<path d="M18.1506 18.8376L17.0121 16.2842H12.4527L11.3584 18.8376M18.1506 18.8376C16.955 19.2678 16.1003 20.4119 16.1003 21.7556C16.1003 23.468 17.4884 24.8561 19.2007 24.8561C20.913 24.8561 22.3011 23.468 22.3011 21.7556C22.3011 20.0433 20.913 18.6552 19.2007 18.6552C18.8321 18.6552 18.4785 18.7195 18.1506 18.8376Z" stroke="#401D73"/>
<path d="M13.1826 21.7554H16.1007" stroke="#401D73"/>
</svg>
