<svg width="24" height="24" viewBox="0 0 24 24" fill="none" xmlns="http://www.w3.org/2000/svg">
<path fill-rule="evenodd" clip-rule="evenodd" d="M10.9924 4.26319C8.95824 4.97637 7.48224 6.86 7.48224 8.74286V9.2247H7.9684H8.45457L8.51466 8.57336C8.94866 3.86665 15.9144 3.93232 16.5651 8.64912L16.6446 9.2247H17.1463H17.648L17.5743 8.64912C17.1539 5.36447 13.9468 3.22737 10.9924 4.26319ZM11.8156 5.50656C10.3288 5.79709 9.15712 7.07115 8.97586 8.59431L8.90083 9.2247H9.41777C9.91074 9.2247 9.93482 9.21023 9.93482 8.91532C9.93482 7.62941 11.2289 6.37421 12.5546 6.37421C13.8705 6.37421 15.1744 7.63895 15.1744 8.91532C15.1744 9.20892 15.2001 9.2247 15.6761 9.2247C16.2493 9.2247 16.2624 9.18984 16.0527 8.21596C15.6509 6.35085 13.7419 5.13007 11.8156 5.50656ZM6.21749 10.3023C5.89609 10.6515 5.94425 17.5347 6.27412 18.4017C7.59216 21.8661 17.4056 21.8661 18.7236 18.4017C19.0692 17.4933 19.1009 10.5858 18.7609 10.2832C18.4307 9.9894 6.48872 10.0075 6.21749 10.3023ZM18.0537 14.3501C17.9948 19.6087 17.7954 19.8044 12.4989 19.8044C7.20231 19.8044 7.00298 19.6087 6.94401 14.3501L6.90744 11.0885H12.4989H18.0903L18.0537 14.3501ZM11.9807 12.9613C11.0269 13.236 10.6483 14.3654 11.2282 15.2058C11.5168 15.6241 11.5514 16.7315 11.3076 17.7488C11.249 17.9934 11.2591 17.9955 12.4943 17.9955C13.6276 17.9955 13.7352 17.9781 13.6849 17.8036C13.4436 16.966 13.4882 15.6135 13.7706 15.2042C14.5972 14.0065 13.4299 12.5438 11.9807 12.9613ZM12.8407 13.9428C13.105 14.082 13.1198 14.4557 12.8718 14.7252C12.6428 14.9739 12.4104 14.9801 12.1454 14.7443C11.6097 14.2676 12.189 13.5999 12.8407 13.9428Z" fill="#401D73"/>
</svg>
