<svg width="24" height="24" viewBox="0 0 24 24" fill="none" xmlns="http://www.w3.org/2000/svg">
<path fill-rule="evenodd" clip-rule="evenodd" d="M11.3668 5.72553C6.16656 9.46958 3 11.794 3 11.8672C3 11.9749 4.89916 14.1095 4.9944 14.1088C5.03211 14.1086 6.75362 12.9021 8.81999 11.4276C11.3071 9.65284 12.6267 8.77512 12.7243 8.8307C12.8055 8.87687 14.4759 10.0834 16.4362 11.512C20.632 14.5695 19.9087 14.3393 21.1644 13.0169C22.4398 11.6738 23.4939 12.7477 14.4384 6.16476C12.3746 4.66455 12.7633 4.72013 11.3668 5.72553ZM16.811 6.44677V6.92424L17.6993 6.95551L18.5875 6.98679L18.6217 7.65619L18.6557 8.3256H19.1088H19.5618V7.14745V5.9693H18.1864H16.811V6.44677ZM16.7416 9.04266C18.9174 10.6217 20.7 11.9418 20.7028 11.976C20.7056 12.0104 20.5373 12.2229 20.3289 12.4483L19.9498 12.8581L16.5179 10.3627C14.6304 8.9904 12.9712 7.79704 12.8308 7.71092C12.5498 7.5387 12.6254 7.48943 7.24073 11.3536L5.17767 12.8341L4.80517 12.4558C4.32116 11.964 4.29537 12.018 5.38306 11.2454C5.90054 10.8778 7.71637 9.56705 9.41839 8.33256C11.1204 7.09807 12.5743 6.10692 12.6491 6.12985C12.724 6.15287 14.5656 7.46362 16.7416 9.04266ZM10.5626 14.4549C10.5329 14.5298 10.4954 15.6034 10.4793 16.8404L10.4499 19.0896H8.78802H7.12611L7.09516 16.7601L7.06433 14.4306H6.55075H6.03728V17.2153V20H8.78802H11.5388V17.6973V15.3945H12.6849H13.831V17.6973V20H16.4691H19.1072L19.0766 17.2421L19.046 14.4841L18.5612 14.4512L18.0762 14.4185L18.0454 16.754L18.0145 19.0896H16.4672H14.9199L14.8626 16.7333L14.8053 14.377L12.7109 14.3478C11.0975 14.3253 10.6042 14.3499 10.5626 14.4549Z" fill="#401D73"/>
</svg>
