<svg width="24" height="24" viewBox="0 0 24 24" fill="none" xmlns="http://www.w3.org/2000/svg">
<path fill-rule="evenodd" clip-rule="evenodd" d="M11.0715 4.21739C9.43205 5.06332 9.51953 7.40357 11.2161 8.08563C13.4865 8.99828 15.3443 6.18175 13.5497 4.54814C12.9198 3.97473 11.825 3.82864 11.0715 4.21739ZM12.5188 5.06309C13.6624 5.52283 13.3441 7.25155 12.1159 7.25155C10.752 7.25155 10.4757 5.2312 11.8055 4.98205C11.9444 4.95601 12.0727 4.92784 12.0908 4.91946C12.1088 4.91108 12.3014 4.97579 12.5188 5.06309ZM5.34081 6.18398C4.09105 6.61275 3.96429 7.00509 4.0067 10.3128L4.04143 13.026L4.35385 13.4198C4.52568 13.6364 4.82636 13.8773 5.02189 13.9553C5.36986 14.0939 5.37753 14.1136 5.37753 14.8658V15.6348H5.90035H6.42317V14.8644C6.42317 14.1375 6.43943 14.0902 6.71153 14.0245C7.90542 13.7362 8.1659 13.0234 8.1659 10.0451C8.1659 6.80747 7.7617 6.03185 6.07462 6.03185C5.91487 6.03185 5.58468 6.10026 5.34081 6.18398ZM17.4251 6.61588C16.8751 6.93623 16.5585 7.3896 16.4648 7.99129C16.4112 8.33455 16.3199 8.48679 16.113 8.57755C15.086 9.02767 15.2127 10.6565 16.3027 11.0177C16.8825 11.2098 19.5751 11.204 20.0588 11.0096C20.9054 10.6692 21.3131 9.28252 20.7187 8.765C20.5937 8.65613 20.4568 8.34528 20.4145 8.074C20.1936 6.65668 18.6489 5.9032 17.4251 6.61588ZM6.7989 7.35394L7.17835 7.67988L7.21634 9.74103C7.27373 12.85 6.59058 13.9764 5.2969 12.906L4.97089 12.6361V10.1583V7.68033L5.35034 7.35416C5.84748 6.92673 6.30152 6.92673 6.7989 7.35394ZM18.9075 7.43274C19.1984 7.54016 19.4356 8.0825 19.4356 8.64059C19.4356 9.05696 19.487 9.17902 19.726 9.32969C20.6583 9.91741 17.9286 10.5809 16.5986 10.0899C16.1321 9.91763 16.4953 9.3753 17.0771 9.3753H17.4605V8.64372C17.4605 7.60007 18.0422 7.11329 18.9075 7.43274ZM10.7487 10.2953L10.3751 10.6548L10.9145 11.1817L11.454 11.7086L8.18344 14.9207L4.9128 18.1329V19.5665V21H12.2323H19.5517V19.6058V18.2116L16.2208 14.9623L12.8899 11.713L13.4336 11.1818L13.9773 10.6508L13.5933 10.2929L13.2095 9.93485L12.6963 10.438L12.183 10.9409L11.6526 10.4384L11.1224 9.93585L10.7487 10.2953ZM18.4743 19.3234L18.448 20.0499L17.838 20.0837L17.2281 20.1175V19.0549V17.9922L16.7924 17.924C15.2305 17.6799 13.6491 16.4941 12.8955 15.0019C12.5154 14.2492 11.7843 14.2721 11.3747 15.0496C10.459 16.7883 9.07514 17.8703 7.76716 17.8703H7.24481L7.21158 18.9601L7.17835 20.0499H6.53935H5.90035L5.86561 19.3457L5.83087 18.6414L9.00252 15.5356L12.1742 12.4297L15.3373 15.5133L18.5005 18.5968L18.4743 19.3234ZM12.4435 16.2139C13.1305 17.2577 14.7066 18.4125 15.9853 18.8089C16.1584 18.8625 16.1886 18.9757 16.1596 19.4619L16.1244 20.0499H12.1742H8.22399L8.18925 19.4731C8.15486 18.9021 8.15823 18.8956 8.5378 18.8167C9.59366 18.597 10.8408 17.6752 11.6705 16.501C12.2044 15.7456 12.1488 15.7662 12.4435 16.2139Z" fill="#401D73"/>
</svg>
