<svg width="24" height="24" viewBox="0 0 24 24" fill="none" xmlns="http://www.w3.org/2000/svg">
<path fill-rule="evenodd" clip-rule="evenodd" d="M10.4322 4.221C7.68186 5.06491 7 6.45171 7 11.2014V14.404L7.45926 14.3721L7.91851 14.3402L7.97254 11.021L8.02657 7.70181L8.33908 7.10974C10.0009 3.96169 14.3588 4.246 15.8234 7.59808C15.8734 7.71218 15.9386 9.27584 15.9686 11.0729L16.023 14.3402L16.4823 14.3721L16.9415 14.404V11.2014C16.9415 7.73044 16.8938 7.36138 16.3216 6.41178C15.1537 4.47357 12.6474 3.54129 10.4322 4.221ZM10.7199 5.68508C9.04363 6.30411 8.51284 7.37653 8.51284 10.1444V11.6952H8.99911H9.48538V10.0608C9.48538 7.94795 9.66109 7.39437 10.5089 6.83674C10.9241 6.56363 11.0319 6.55471 10.9508 6.80013C10.9096 6.92491 10.9996 7.08952 11.2203 7.2923L11.5516 7.59715L11.7545 7.33898C11.9348 7.10943 11.9654 7.10093 12.0297 7.2617C12.1706 7.61406 13.0062 7.17364 12.886 6.81029C12.7701 6.4598 13.0711 6.59288 13.6116 7.13101C14.2602 7.77701 14.2596 7.83872 13.6042 7.77825C13.021 7.72452 12.6191 7.96828 12.6191 8.37602C12.6191 8.56615 12.6912 8.58347 13.4836 8.58347C14.475 8.58347 14.4678 8.57382 14.174 9.52332C13.7985 10.7371 12.7919 11.2803 10.9184 11.2803H9.9052L9.93848 11.7212L9.97166 12.162L11.2143 12.1472C13.2698 12.1228 14.4425 11.4775 14.9979 10.0656C16.0763 7.32342 13.4806 4.66557 10.7199 5.68508ZM12.557 6.49631C12.5892 6.54641 12.4756 6.61435 12.3045 6.64713C11.914 6.72212 11.199 6.61674 11.2769 6.49569C11.3531 6.37745 12.4808 6.37796 12.557 6.49631ZM9.85873 8.00832C9.3676 8.47964 9.48549 8.58347 10.512 8.58347C11.5249 8.58347 11.608 8.51688 11.2065 8.02699C10.8996 7.65243 10.2389 7.64331 9.85873 8.00832ZM10.9289 9.86167C10.6064 10.0808 10.5982 10.1029 10.7668 10.3006C11.4188 11.0654 12.6174 11.0598 13.2045 10.2892C13.4314 9.99123 12.7063 9.51285 12.4134 9.76728C12.1741 9.97515 11.7146 9.97982 11.5385 9.77631C11.3679 9.57892 11.3389 9.58297 10.9289 9.86167ZM7 16.3381C7 22.4229 16.4444 22.6147 16.9275 16.5397L17 15.6273L16.5115 15.658L16.023 15.6886L15.957 16.5402C15.5912 21.2624 8.35032 21.2624 7.98454 16.5402L7.91851 15.6886L7.45926 15.6568L7 15.6248V16.3381Z" fill="#401D73"/>
</svg>
