<svg width="24" height="24" viewBox="0 0 24 24" fill="none" xmlns="http://www.w3.org/2000/svg">
<path fill-rule="evenodd" clip-rule="evenodd" d="M6.96401 4.24184C6.90958 4.38425 6.73113 4.83029 6.56738 5.23301C6.19352 6.15236 6.16869 6.03321 6.85537 6.61289L7.44116 7.10751L7.77573 6.73249L8.11041 6.35748L7.76434 6.05624L7.41827 5.755L7.61368 5.35593L7.80909 4.95686H9.28369H10.7583L10.922 5.38774C11.0775 5.79673 11.0722 5.83322 10.8184 6.10367L10.551 6.38872L10.8906 6.72873L11.2302 7.06885L11.7388 6.55006L12.2473 6.03115L11.8958 5.03793L11.5444 4.0447L9.30362 4.0138C7.0657 3.9829 7.06286 3.98313 6.96401 4.24184ZM7.76411 7.24615C1.41945 8.95475 1.4092 18.1323 7.74999 19.7818C13.6985 21.3292 18.3989 14.3041 14.6023 9.54058L14.257 9.10742L13.8869 9.43853L13.5168 9.76965L13.9918 10.4818C17.5952 15.8849 10.3964 21.877 5.64657 17.4282C2.28434 14.279 4.51622 8.09241 9.0146 8.09241H9.45815V7.57932V7.06623L8.91723 7.07375C8.61967 7.07786 8.10085 7.15539 7.76411 7.24615ZM12.8328 7.24034C8.08525 8.43915 6.38506 14.6153 9.85957 18.0407C10.3825 18.5563 10.4034 18.5583 10.7113 18.1255L10.9551 17.7828L10.4305 17.1848C5.87182 11.9883 13.2055 4.82608 18.2488 9.54936C21.4424 12.5403 19.9088 18.0385 15.6623 18.8231C15.2876 18.8923 14.8659 18.97 14.725 18.9958C14.51 19.0352 14.4687 19.1158 14.4687 19.4966V19.9505L14.9527 19.9488C17.4641 19.9401 20.1159 17.7873 20.7854 15.2139C22.032 10.4218 17.6466 6.02477 12.8328 7.24034Z" fill="#401D73"/>
</svg>
