<svg width="24" height="24" viewBox="0 0 24 24" fill="none" xmlns="http://www.w3.org/2000/svg">
<path fill-rule="evenodd" clip-rule="evenodd" d="M9.57902 4.16459C8.18165 4.68761 7.49214 7.83785 8.43379 9.39694C8.69809 9.8347 8.74781 10.0429 8.78057 10.8502C8.99429 16.119 16.1272 16.2432 16.1278 10.978C16.1279 10.246 16.161 10.1197 16.4747 9.65218L16.8214 9.13532L16.8207 7.71605C16.8198 6.11494 16.6994 5.72089 16.096 5.34699C15.9082 5.23058 15.7236 5.09411 15.686 5.0438C15.6484 4.9935 15.426 4.73815 15.1917 4.47619L14.7658 4L12.3792 4.00493C10.6296 4.00852 9.88206 4.0512 9.57902 4.16459ZM14.5896 5.16985C14.6727 5.28952 14.7407 5.52257 14.7407 5.68772C14.7407 5.9499 14.7934 5.99696 15.1537 6.05747C15.6216 6.13601 15.7573 6.26665 15.8685 6.74575C15.9439 7.07068 15.94 7.07516 15.7398 6.88939C15.0679 6.26564 13.7383 6.00761 12.7028 6.30015C12.3271 6.40626 11.5317 6.52973 10.9351 6.57455C10.1237 6.63539 9.75391 6.71561 9.46795 6.89275L9.08553 7.12973V6.57847C9.08553 5.12985 9.55758 4.90476 12.5355 4.93378C14.2845 4.95092 14.4505 4.96997 14.5896 5.16985ZM14.748 7.42127C15.7345 7.95695 15.4622 11.6761 14.341 12.9793C12.2566 15.4019 9.72905 13.5996 9.72681 9.68881C9.72553 7.57454 9.67634 7.64524 11.2196 7.54608C11.7771 7.51034 12.4493 7.40401 12.7134 7.30989C13.2824 7.10709 14.2689 7.1611 14.748 7.42127ZM9.24558 15.5384C6.61153 16.3606 5.24211 17.793 5.05858 19.9177L5 20.597L5.46789 20.5618L5.93589 20.5265L6.01634 19.9356C6.16295 18.8592 6.78086 17.8455 7.66564 17.2302C8.33882 16.7619 8.38759 16.791 8.06182 17.466L7.78141 18.0471L8.14004 18.3593C8.33733 18.5312 8.53473 18.6731 8.57869 18.6748C8.62265 18.6764 8.65872 18.921 8.65872 19.2184V19.7591L9.46688 20.2967C10.4427 20.9458 10.5574 20.9635 10.8167 20.5045L11.0191 20.1464L10.3191 19.6821C9.63216 19.2267 9.61904 19.2088 9.61904 18.7313C9.61904 18.3192 9.57038 18.2084 9.30053 18.0066L8.98192 17.7685L9.29498 17.1172C9.56131 16.5633 9.95984 16.1972 10.1171 16.3623C10.1321 16.378 10.4769 17.3466 10.8835 18.5148C11.5735 20.4971 11.6394 20.6365 11.8746 20.6081C12.3611 20.5494 12.7693 20.5579 13.0335 20.6324C13.2946 20.7059 13.3158 20.6625 14.0392 18.5667C14.4456 17.3893 14.8094 16.4056 14.8476 16.3808C15.086 16.226 15.4173 16.5169 15.6607 17.0947L15.9249 17.7221L15.5986 18.0039C15.3291 18.2365 15.2726 18.3671 15.2733 18.7537C15.2743 19.2058 15.2526 19.2356 14.6365 19.6286C13.8384 20.1377 13.8288 20.1561 14.1176 20.6188L14.3556 21L15.2946 20.3711L16.2338 19.7422L16.2344 19.238C16.2349 18.7629 16.2625 18.7154 16.7125 18.4169L17.1901 18.1002L16.9185 17.5375C16.5734 16.8222 16.6339 16.7712 17.2972 17.2183C18.1919 17.8211 18.8373 18.8607 18.9834 19.9346L19.0641 20.5265L19.5321 20.5618L20 20.597L19.9414 19.9177C19.8199 18.5104 18.792 16.9355 17.5388 16.2362C17.0209 15.9471 14.3194 15.0492 14.2349 15.1381C14.2194 15.1542 13.8394 16.222 13.3905 17.5108C12.9416 18.7997 12.5401 19.8954 12.4982 19.9456C12.4564 19.9957 12.0435 18.9253 11.5808 17.5667C11.118 16.2081 10.7154 15.0986 10.6861 15.101C10.6567 15.1035 10.0085 15.3003 9.24558 15.5384Z" fill="#401D73"/>
</svg>
