<svg width="24" height="24" viewBox="0 0 24 24" fill="none" xmlns="http://www.w3.org/2000/svg">
<path fill-rule="evenodd" clip-rule="evenodd" d="M14.0128 6.64698C11.6341 7.58126 9.57208 8.39666 9.43063 8.45885C9.19293 8.56338 9.22796 9.01982 9.49338 9.27543C9.50734 9.28896 11.3457 8.58304 13.5785 7.70683C15.8113 6.83062 17.7101 6.09186 17.7981 6.06515C17.929 6.02546 18.0703 6.29077 18.5752 7.52365C18.9146 8.35249 19.2256 9.03088 19.2665 9.03116C19.3073 9.03143 19.4891 8.9719 19.6704 8.89892L20 8.76622L19.8195 8.32734C18.866 6.00809 18.4555 5.04527 18.4016 5.00082C18.3665 4.97183 16.3916 5.7126 14.0128 6.64698ZM14.7558 8.17177L13.9268 8.57472L14.0851 8.89462C14.275 9.27808 14.2619 9.27689 14.9109 8.97025L15.4279 8.72598L16.0151 8.97985C16.3393 9.11996 16.8554 9.25577 17.1676 9.28302L17.733 9.33241L17.7032 8.93056C17.6755 8.55853 17.6521 8.52661 17.3885 8.50128C16.9284 8.4572 16.1766 8.19647 15.8696 7.9746L15.5848 7.76874L14.7558 8.17177ZM5 14.5188V19H12.2622H19.5245V14.5188V10.0376H12.2622H5V14.5188ZM18.6701 14.5652V18.2697L12.2385 18.2462L5.80692 18.2226L5.78204 14.6562C5.76837 12.6947 5.77768 11.0382 5.80283 10.9752C5.83872 10.885 7.21161 10.8607 12.2593 10.8607H18.6701V14.5652ZM7.90186 12.0916C7.7943 12.3631 7.63121 12.5644 7.41439 12.6936C7.22642 12.8054 7.08849 12.9618 7.08849 13.0631C7.08849 13.1595 7.02337 13.2385 6.94372 13.2385C6.81888 13.2385 6.80256 13.4421 6.82505 14.7181L6.85116 16.1977L7.12466 16.2681C7.46565 16.3558 7.79763 16.6501 7.94676 16.9971L8.06087 17.2624L12.1551 17.2617L16.2494 17.261L16.4583 16.9085C16.67 16.5512 17.1506 16.2564 17.5215 16.2564C17.7165 16.2564 17.7208 16.2214 17.7208 14.6056V12.9548L17.3788 12.8171C17.0223 12.6736 16.4303 12.1202 16.3376 11.8438C16.2877 11.6946 16.0046 11.6838 12.1738 11.6838H8.06362L7.90186 12.0916ZM16.0579 12.8516C16.2818 13.0915 16.5767 13.3454 16.7132 13.4158C16.9573 13.5416 16.9613 13.5598 16.9613 14.5331V15.5223L16.647 15.6488C16.4742 15.7184 16.1818 15.9453 15.9971 16.1531L15.6615 16.5308H12.1899H8.71827L8.41525 16.1622C8.24864 15.9595 7.98872 15.7321 7.83769 15.6568L7.56314 15.5201V14.5815V13.643L7.99034 13.299C8.22529 13.1098 8.48274 12.8336 8.56239 12.6852L8.70716 12.4154H12.179H15.6507L16.0579 12.8516ZM10.7663 13.2589C10.1023 13.6298 9.8695 14.4209 10.2226 15.1072C10.7611 16.1543 12.9088 16.2325 13.5443 15.2284C14.4417 13.8106 12.387 12.354 10.7663 13.2589ZM12.7341 14.0585C13.1283 14.4782 12.8359 15.0214 12.1635 15.1185C11.1926 15.2588 10.5156 14.601 11.0756 14.0615C11.3496 13.7976 12.487 13.7956 12.7341 14.0585Z" fill="#401D73"/>
</svg>
