<svg width="24" height="24" viewBox="0 0 24 24" fill="none" xmlns="http://www.w3.org/2000/svg">
<path fill-rule="evenodd" clip-rule="evenodd" d="M8.97247 4.24674C8.57655 4.47508 8.07418 5.113 8.07418 5.38754C8.07418 5.46901 7.9162 5.68317 7.72318 5.86341C6.64793 6.8675 6.62615 9.72954 7.68231 11.2555C7.89778 11.5669 8.07643 11.9359 8.07912 12.0755C8.09282 12.7824 8.74644 13.8863 9.43957 14.3734C10.1745 14.8897 9.88826 15.4844 8.83671 15.6263C6.35801 15.9605 4.95759 19.7864 6.94077 20.8056C7.44482 21.0648 16.5635 21.0648 17.0676 20.8056C19.0267 19.7988 17.6536 15.961 15.2165 15.6323C14.0279 15.4719 13.7885 14.9187 14.5955 14.1976C15.3817 13.495 15.8243 12.5458 15.904 11.392L15.9663 10.4879H16.4555H16.9447V9.26573C16.9447 6.45111 15.9399 4.84761 13.7446 4.15913C12.9365 3.90579 9.45293 3.96963 8.97247 4.24674ZM12.9285 5.01378C14.7064 5.30328 15.9361 6.7117 15.933 8.45538L15.9319 9.09285L15.6702 8.53406C14.6617 6.38169 9.43789 6.22355 8.3248 8.31164C8.22667 8.49578 8.11068 8.82222 8.067 9.03705C8.01243 9.3059 7.98368 9.09084 7.97481 8.34679C7.95954 7.07039 8.04308 6.79964 8.54241 6.50658C8.82908 6.33828 8.94933 6.16373 9.0578 5.75895C9.27732 4.93979 10.7419 4.65788 12.9285 5.01378ZM13.8324 8.0747C15.838 8.92757 15.1303 13.4629 12.8984 14.0603C10.0816 14.8142 7.83917 11.6575 9.20276 8.85793C9.62978 7.98107 12.4788 7.49906 13.8324 8.0747ZM13.3516 15.5901C13.6927 16.2292 14.0792 16.4652 15.0346 16.6175C16.177 16.7998 16.7568 17.3805 16.8952 18.4811C17.0984 20.0981 17.1464 20.0825 12.0042 20.0825C7.40058 20.0825 7.31682 20.0715 7.13772 19.4506C6.61245 17.6304 8.64403 15.7591 9.77744 17.0189C10.1401 17.422 10.5881 17.6896 11.2462 17.8965C11.4022 17.9455 11.4427 18.0856 11.4427 18.5756V19.1929H11.9424H12.4421L12.4758 18.5682C12.5086 17.9606 12.5206 17.9397 12.9157 17.8052C13.139 17.7291 13.5091 17.5519 13.738 17.4113L14.154 17.1557L13.7988 16.7914L13.4436 16.4273L12.9766 16.6926C12.2075 17.1298 11.2587 17.028 10.6406 16.442L10.3438 16.1606L10.6089 15.6958L10.8739 15.231L11.8601 15.1684C12.4026 15.1339 12.8968 15.0964 12.9586 15.085C13.0204 15.0736 13.1972 15.3009 13.3516 15.5901Z" fill="#401D73"/>
</svg>
