<svg width="25" height="24" viewBox="0 0 25 24" fill="none" xmlns="http://www.w3.org/2000/svg">
<path d="M20.8042 4.49595C20.723 4.30055 20.5677 4.14521 20.3723 4.06402C20.2761 4.0229 20.1729 4.00121 20.0683 4H16.0681C15.7823 4 15.5182 4.15241 15.3753 4.39991C15.2324 4.64741 15.2324 4.95249 15.3753 5.2C15.5182 5.44751 15.7823 5.59991 16.0681 5.59991H18.1402L15.1882 8.55198C14.0702 7.67433 12.6895 7.19824 11.268 7.19995C9.57072 7.19995 7.94284 7.87429 6.74263 9.07442C5.54236 10.2747 4.86816 11.9026 4.86816 13.6001C4.86816 15.2974 5.54236 16.9253 6.74263 18.1255C7.94291 19.3258 9.57079 20 11.268 20C12.9654 20 14.5933 19.3258 15.7937 18.1255C16.9939 16.9252 17.6682 15.2973 17.6682 13.6001C17.6699 12.1788 17.1938 10.7981 16.3162 9.67991L19.2682 6.72798V8.8C19.2682 9.0858 19.4206 9.34991 19.6681 9.49281C19.9156 9.63571 20.2207 9.63571 20.4682 9.49281C20.7157 9.34991 20.8681 9.08581 20.8681 8.8V4.79989C20.8669 4.69529 20.8452 4.59203 20.8041 4.49587L20.8042 4.49595ZM11.2683 18.4002C9.99533 18.4002 8.77445 17.8945 7.87431 16.9942C6.97403 16.0941 6.46832 14.8732 6.46832 13.6002C6.46832 12.327 6.97403 11.1062 7.87431 10.206C8.77445 9.30589 9.99533 8.80018 11.2683 8.80018C12.5415 8.80018 13.7623 9.30589 14.6625 10.206C15.5626 11.1062 16.0683 12.327 16.0683 13.6002C16.0683 14.8732 15.5626 16.0941 14.6625 16.9942C13.7623 17.8945 12.5415 18.4002 11.2683 18.4002Z" fill="#6C5393"/>
</svg>
