<svg width="25" height="24" viewBox="0 0 25 24" fill="none" xmlns="http://www.w3.org/2000/svg">
<path d="M20.0682 13.6002H18.4681V5.59994H20.0682C20.354 5.59994 20.6181 5.44753 20.761 5.20003C20.9039 4.95254 20.9039 4.64745 20.761 4.39994C20.6181 4.15243 20.354 4.00003 20.0682 4.00003H17.6682C17.456 4.00003 17.2524 4.08427 17.1024 4.23427C16.9524 4.38427 16.8682 4.58783 16.8682 4.79999V8.8001H13.6681V4.79999C13.6681 4.51419 13.5157 4.25008 13.2682 4.10718C13.0207 3.96427 12.7156 3.96427 12.4681 4.10718C12.2206 4.25008 12.0682 4.51418 12.0682 4.79999V8.8001H8.86811V4.79999C8.86811 4.58785 8.78387 4.38427 8.63387 4.23427C8.48387 4.08427 8.28031 4.00003 8.06815 4.00003H5.66815C5.38235 4.00003 5.11824 4.15244 4.97534 4.39994C4.83244 4.64744 4.83244 4.95253 4.97534 5.20003C5.11824 5.44754 5.38235 5.59994 5.66815 5.59994H7.2682V13.6002H5.66815C5.38235 13.6002 5.11824 13.7526 4.97534 14.0001C4.83244 14.2476 4.83244 14.5527 4.97534 14.8002C5.11824 15.0477 5.38235 15.2001 5.66815 15.2001H8.06815C8.2803 15.2001 8.48387 15.1158 8.63387 14.9658C8.78387 14.8158 8.86811 14.6123 8.86811 14.4001V10.4H12.0681V13.7121H12.0682C11.054 13.9739 10.232 14.7156 9.86788 15.6977C9.50359 16.6798 9.64314 17.778 10.2413 18.638C10.8395 19.4978 11.8207 20.0105 12.8681 20.0105C13.9156 20.0105 14.8968 19.4978 15.495 18.638C16.0931 17.778 16.2327 16.6798 15.8684 15.6977C15.5043 14.7156 14.6823 13.9739 13.6681 13.7121V10.4H16.8681V14.4001H16.8682C16.8682 14.6123 16.9524 14.8158 17.1024 14.9658C17.2524 15.1158 17.456 15.2001 17.6681 15.2001H20.0681C20.3539 15.2001 20.6181 15.0477 20.761 14.8002C20.9039 14.5527 20.9039 14.2476 20.761 14.0001C20.6181 13.7526 20.354 13.6002 20.0681 13.6002H20.0682ZM14.4683 16.8001C14.4683 17.2244 14.2997 17.6314 13.9997 17.9316C13.6995 18.2316 13.2925 18.4002 12.8682 18.4002C12.4439 18.4002 12.0369 18.2316 11.7368 17.9316C11.4368 17.6314 11.2682 17.2244 11.2682 16.8001C11.2682 16.3758 11.4368 15.9688 11.7368 15.6687C12.0369 15.3687 12.4439 15.2001 12.8682 15.2001C13.2925 15.2001 13.6995 15.3687 13.9997 15.6687C14.2997 15.9688 14.4683 16.3758 14.4683 16.8001Z" fill="#6C5393"/>
</svg>
