<svg width="25" height="24" viewBox="0 0 25 24" fill="none" xmlns="http://www.w3.org/2000/svg">
<path d="M20.7721 10.8165C20.7449 10.6244 20.6487 10.4487 20.5015 10.3221C20.3543 10.1954 20.1662 10.1267 19.972 10.1285C19.7814 10.1259 19.596 10.1912 19.4494 10.313C19.3027 10.4347 19.2044 10.6048 19.172 10.7926C18.9785 11.8503 18.4043 12.8005 17.5581 13.4638C16.7118 14.1271 15.652 14.4575 14.5787 14.3927C13.5054 14.328 12.4929 13.8724 11.7326 13.1121C10.9723 12.3517 10.5166 11.3392 10.4518 10.2659C10.387 9.19262 10.7175 8.13271 11.3808 7.28643C12.0441 6.44026 12.9943 5.86611 14.0521 5.6726C14.3379 5.6726 14.602 5.52006 14.7449 5.27256C14.8878 5.02506 14.8878 4.72011 14.7449 4.4726C14.602 4.2251 14.3379 4.07256 14.0521 4.07256C13.6597 4.01965 13.2639 3.99568 12.868 4.00064C10.7463 4.00064 8.71159 4.84345 7.21125 6.34372C5.71098 7.844 4.86816 9.87892 4.86816 12.0005C4.86816 14.1221 5.71098 16.157 7.21125 17.6573C8.71152 19.1576 10.7464 20.0004 12.868 20.0004C14.9896 20.0004 17.0245 19.1576 18.5248 17.6573C20.0251 16.157 20.8679 14.1221 20.8679 12.0005C20.865 11.6041 20.8328 11.2084 20.772 10.8165L20.7721 10.8165ZM12.8678 18.4005C11.4006 18.4023 9.97723 17.8999 8.83617 16.9774C7.6951 16.0549 6.90571 14.7684 6.60022 13.3332C6.2946 11.8982 6.49134 10.4016 7.15764 9.09444C7.82381 7.78716 8.91893 6.74854 10.2597 6.15242C9.28754 7.3014 8.78247 8.77366 8.84501 10.2773C8.90756 11.7812 9.53299 13.2065 10.5972 14.2709C11.6615 15.3351 13.0868 15.9606 14.5908 16.0231C16.0945 16.0856 17.5668 15.5806 18.7157 14.6084C18.2116 15.738 17.391 16.6973 16.3532 17.3703C15.3153 18.0433 14.1047 18.4011 12.8677 18.4005L12.8678 18.4005Z" fill="#6C5393"/>
</svg>
