<svg width="25" height="24" viewBox="0 0 25 24" fill="none" xmlns="http://www.w3.org/2000/svg">
<path d="M20.062 15.2027H16.862V9.60284C16.862 9.31704 16.7095 9.05293 16.462 8.91003C16.2145 8.76712 15.9096 8.76712 15.662 8.91003C15.4145 9.05293 15.262 9.31703 15.262 9.60284V15.2027H8.11788C10.3819 13.4428 13.6619 10.4586 13.6619 8.00272C13.7029 6.92996 13.2945 5.88853 12.5353 5.12941C11.7762 4.37015 10.7347 3.96181 9.66197 4.00282C9.37617 4.00282 9.11207 4.15523 8.96916 4.40272C8.82626 4.65023 8.82626 4.95531 8.96916 5.20282C9.11207 5.45032 9.37617 5.60272 9.66197 5.60272C10.3079 5.57031 10.9374 5.81272 11.3947 6.26996C11.852 6.72733 12.0944 7.35678 12.062 8.00272C12.062 10.0188 7.86198 13.6026 5.22198 15.3385V15.3386C5.03153 15.4665 4.90523 15.6701 4.87511 15.8975C4.84497 16.1249 4.91381 16.3543 5.06435 16.5275C5.21488 16.7007 5.43251 16.8009 5.66195 16.8026H15.2619V19.2026C15.2619 19.4884 15.4145 19.7525 15.662 19.8954C15.9095 20.0383 16.2144 20.0383 16.4619 19.8954C16.7095 19.7525 16.862 19.4884 16.862 19.2026V16.8026H20.0619C20.3477 16.8026 20.6119 16.6501 20.7548 16.4026C20.8977 16.1551 20.8977 15.8501 20.7548 15.6026C20.6119 15.3551 20.3478 15.2026 20.0619 15.2026L20.062 15.2027Z" fill="#6C5393"/>
</svg>
