<svg width="25" height="24" viewBox="0 0 25 24" fill="none" xmlns="http://www.w3.org/2000/svg">
<path d="M18.0626 9.63512C18.0582 8.44891 17.6773 7.29485 16.9748 6.33913L17.8548 5.37111H17.8547C18.012 5.21683 18.0987 5.00443 18.0943 4.78411C18.0898 4.56366 17.9948 4.35485 17.8314 4.20701C17.668 4.05915 17.4509 3.98509 17.2312 4.0025C17.0114 4.02005 16.8087 4.12732 16.6707 4.29915L15.8708 5.19514H15.8706C14.9 4.4426 13.7069 4.03426 12.4786 4.03426C11.2505 4.03426 10.0573 4.4426 9.08672 5.19514L8.28677 4.29915H8.28664C8.09512 4.08192 7.80235 3.98335 7.51843 4.04053C7.23464 4.09786 7.00281 4.3021 6.91054 4.57666C6.81813 4.85108 6.87921 5.15389 7.07072 5.37113L7.94275 6.33915C6.8069 7.92408 6.57722 9.98578 7.33644 11.7817C8.0957 13.5777 9.73442 14.8494 11.6626 15.1391V16.0351H10.8625C10.5767 16.0351 10.3126 16.1875 10.1697 16.435C10.0268 16.6825 10.0268 16.9876 10.1697 17.2351C10.3126 17.4826 10.5767 17.635 10.8625 17.635H11.6625V19.2351H11.6626C11.6626 19.5209 11.815 19.785 12.0625 19.9279C12.31 20.0708 12.6151 20.0708 12.8626 19.9279C13.1101 19.785 13.2625 19.5209 13.2625 19.2351V17.635H14.0626C14.3484 17.635 14.6125 17.4826 14.7554 17.2351C14.8983 16.9876 14.8983 16.6825 14.7554 16.435C14.6125 16.1875 14.3484 16.0351 14.0626 16.0351H13.2625V15.171C14.5943 14.9788 15.8122 14.3136 16.6935 13.2971C17.5749 12.2805 18.0609 10.9805 18.0624 9.63504L18.0626 9.63512ZM8.46264 9.63512C8.46264 8.57429 8.88411 7.55683 9.63425 6.80669C10.3844 6.05655 11.4018 5.63508 12.4627 5.63508C13.5235 5.63508 14.541 6.05655 15.2911 6.80669C16.0413 7.55683 16.4627 8.57429 16.4627 9.63512C16.4627 10.696 16.0413 11.7134 15.2911 12.4636C14.541 13.2137 13.5235 13.6352 12.4627 13.6352C11.4018 13.6352 10.3844 13.2137 9.63425 12.4636C8.88411 11.7134 8.46264 10.696 8.46264 9.63512Z" fill="#6C5393"/>
</svg>
