<svg width="25" height="24" viewBox="0 0 25 24" fill="none" xmlns="http://www.w3.org/2000/svg">
<path d="M10.7794 14.85H6.40521L5.54286 16.875H3.86816L7.80496 8.125H9.40467L13.354 16.875H11.6543L10.7794 14.85ZM10.242 13.575L8.59232 9.75L6.95511 13.575H10.242Z" fill="#6C5393"/>
<path d="M18.3938 17C17.5106 17 16.7108 16.8083 15.9942 16.425C15.286 16.0333 14.7278 15.4958 14.3195 14.8125C13.9196 14.1292 13.7196 13.3583 13.7196 12.5C13.7196 11.6417 13.9238 10.8708 14.332 10.1875C14.7403 9.50417 15.2985 8.97083 16.0067 8.5875C16.7233 8.19583 17.5231 8 18.4063 8C19.1228 8 19.7769 8.125 20.3684 8.375C20.96 8.625 21.4599 8.9875 21.8682 9.4625L20.8184 10.45C20.1851 9.76667 19.4061 9.425 18.4813 9.425C17.8814 9.425 17.344 9.55833 16.8691 9.825C16.3941 10.0833 16.0234 10.4458 15.7568 10.9125C15.4901 11.3792 15.3568 11.9083 15.3568 12.5C15.3568 13.0917 15.4901 13.6208 15.7568 14.0875C16.0234 14.5542 16.3941 14.9208 16.8691 15.1875C17.344 15.4458 17.8814 15.575 18.4813 15.575C19.4061 15.575 20.1851 15.2292 20.8184 14.5375L21.8682 15.5375C21.4599 16.0125 20.9558 16.375 20.3559 16.625C19.7644 16.875 19.1103 17 18.3938 17Z" fill="#6C5393"/>
</svg>
