<svg width="25" height="24" viewBox="0 0 25 24" fill="none" xmlns="http://www.w3.org/2000/svg">
<path fill-rule="evenodd" clip-rule="evenodd" d="M7.0459 11C7.23767 11.7426 7.58165 12.4446 8.06395 13.0586C8.95284 14.1906 10.2435 14.9367 11.6681 15.1423V16.0064H10.868C10.5822 16.0064 10.3181 16.1588 10.1752 16.4063C10.0323 16.6538 10.0323 16.9589 10.1752 17.2064C10.3181 17.4539 10.5822 17.6063 10.868 17.6063H11.6679V19.2063H11.6681C11.6681 19.4921 11.8205 19.7562 12.068 19.8991C12.3155 20.0421 12.6205 20.0421 12.8681 19.8991C13.1156 19.7562 13.268 19.4921 13.268 19.2063V17.6063H14.0681C14.3539 17.6063 14.618 17.4539 14.7609 17.2064C14.9038 16.9589 14.9038 16.6538 14.7609 16.4063C14.618 16.1588 14.3539 16.0064 14.0681 16.0064H13.268V15.1423C14.5998 14.9501 15.8177 14.2849 16.6989 13.2684C17.27 12.6096 17.6751 11.8319 17.89 11H16.2176C16.0192 11.5339 15.7071 12.0245 15.2966 12.435C14.5464 13.1852 13.529 13.6067 12.4682 13.6067C11.4073 13.6067 10.3899 13.1852 9.63972 12.435C9.2292 12.0245 8.91711 11.5339 8.71866 11H7.0459Z" fill="#6C5393"/>
<path d="M15.1182 8.5C15.1182 10.0188 13.8869 11.25 12.3682 11.25C10.8494 11.25 9.61816 10.0188 9.61816 8.5C9.61816 6.98122 10.8494 5.75 12.3682 5.75C13.8869 5.75 15.1182 6.98122 15.1182 8.5Z" stroke="#6C5393" stroke-width="1.5"/>
</svg>
