<svg width="24" height="24" viewBox="0 0 24 24" fill="none" xmlns="http://www.w3.org/2000/svg">
<path fill-rule="evenodd" clip-rule="evenodd" d="M11.4958 1.31587C10.8382 2.0463 11.236 4.69742 12.0033 4.69742C12.6114 4.69742 12.7619 4.34296 12.7619 2.91109C12.7619 1.24815 12.1972 0.536638 11.4958 1.31587ZM4.2959 4.27036C3.58221 4.98782 5.99395 7.63178 6.77091 6.98357C7.24655 6.58686 7.03703 6.02543 6.04417 5.03617C5.10412 4.09954 4.65958 3.90477 4.2959 4.27036ZM17.983 5.02672C16.9901 5.98516 16.7674 6.52783 17.1921 6.95474C17.8466 7.61272 20.3347 5.18183 19.7968 4.40992C19.4327 3.88723 19.017 4.02846 17.983 5.02672ZM10.3835 6.73831C6.51101 8.01004 5.30211 12.97 8.14761 15.9132C10.7314 18.5857 15.4032 17.7519 16.9797 14.3366C18.9083 10.1583 14.7069 5.31864 10.3835 6.73831ZM13.5963 8.33765C17.5938 10.1696 16.3098 15.9898 11.9098 15.9825C8.51614 15.9768 6.78623 11.9846 9.02425 9.32309C10.0062 8.15554 12.1774 7.68745 13.5963 8.33765ZM1.3178 11.4955C0.55586 12.2614 1.19536 12.7811 2.90008 12.7811C4.36797 12.7811 4.72072 12.6333 4.72072 12.0185C4.72072 11.2592 1.97307 10.8369 1.3178 11.4955ZM19.5242 11.4955C19.1946 11.8269 19.2242 12.4321 19.5792 12.6232C20.0666 12.8852 22.4078 12.8238 22.6887 12.5414C23.4426 11.7834 22.7933 11.2558 21.1065 11.2558C20.087 11.2558 19.705 11.3137 19.5242 11.4955ZM5.12172 17.9448C3.93223 19.1497 3.76413 19.8245 4.62847 19.9236C5.68839 20.0454 7.5292 17.5016 6.70309 17.057C6.25127 16.814 6.22138 16.8308 5.12172 17.9448ZM17.2755 17.0639C16.7348 17.3805 16.9527 17.9947 17.9624 19.0007C19.1814 20.2153 19.8927 20.2886 19.8927 19.1995C19.8927 18.9347 17.9173 16.8949 17.6695 16.9037C17.5988 16.9063 17.4216 16.9783 17.2755 17.0639ZM11.483 19.5791C10.8337 20.232 11.2545 23 12.0033 23C12.5951 23 12.7619 22.5975 12.7619 21.1697C12.7619 19.742 12.5951 19.3395 12.0033 19.3395C11.8484 19.3395 11.6143 19.4473 11.483 19.5791Z" fill="#2BA700"/>
</svg>
