<svg width="24" height="24" viewBox="0 0 24 24" fill="none" xmlns="http://www.w3.org/2000/svg">
<path fill-rule="evenodd" clip-rule="evenodd" d="M10.5261 1.11252C9.39107 1.3615 8.3623 1.8265 7.38486 2.53262C6.79079 2.96182 5.64429 4.19996 5.19029 4.90281C4.71984 5.63109 4.59481 5.75378 4.25842 5.81698C1.9869 6.24366 0.340292 9.22337 1.25941 11.2439C1.38487 11.5195 1.48744 11.7744 1.48744 11.8102C1.48744 11.9984 2.49987 13.0841 2.92749 13.3543C4.07072 14.077 3.70894 14.0494 12.0063 14.0466C20.4956 14.0436 20.2112 14.0697 21.3817 13.1848C24.1631 11.0818 23.1735 6.38033 19.8299 5.81294C19.4634 5.75083 18.928 5.22514 18.928 4.92748C18.928 4.51476 16.8036 2.48296 15.893 2.02484C15.6139 1.88435 15.3609 1.74234 15.3309 1.70927C14.84 1.16732 11.9264 0.805469 10.5261 1.11252ZM13.4157 2.46659C13.4485 2.51974 13.6583 2.59768 13.8819 2.6397C14.9134 2.83345 16.6691 4.08666 17.4004 5.15103C17.8153 5.75487 17.8184 5.75323 16.212 5.7552C14.7554 5.75705 14.6386 5.78434 14.5247 6.15034C14.2774 6.94455 14.6299 7.06003 17.3069 7.06189C21.749 7.06505 23.6143 10.6291 20.0949 12.3892L19.6127 12.6303H12.0249C3.48297 12.6303 4.04434 12.6838 3.17471 11.7872C1.59318 10.1564 2.78524 7.06342 4.9954 7.06342C5.34922 7.06342 5.8829 6.59449 6.01959 6.16354C6.19062 5.62377 7.14865 4.47143 8.05948 3.70975C8.42759 3.40193 9.6759 2.76403 10.3167 2.55631C10.8643 2.37882 13.3177 2.30777 13.4157 2.46659ZM6.07246 15.7044C5.95157 15.8343 5.79614 16.1167 5.72692 16.3321C5.65781 16.5474 5.5633 16.7727 5.51698 16.8328C5.36056 17.0358 5.18179 17.879 5.24981 18.0935C5.4845 18.834 6.69934 18.3519 6.72332 17.5088C6.72539 17.4371 6.82175 17.1821 6.93762 16.9419C7.44034 15.8998 6.77542 14.9489 6.07246 15.7044ZM11.6289 15.627C11.4636 15.8266 11.0798 16.5752 11.0798 16.6981C11.0798 16.7487 10.9793 17.0112 10.8563 17.2814C10.6188 17.8035 10.651 18.1492 10.9594 18.3843C11.5381 18.8257 12.0492 18.2177 12.6029 16.4294C12.8233 15.7175 12.069 15.0961 11.6289 15.627ZM16.9749 15.836C16.8501 16.0381 16.7479 16.2395 16.7479 16.2834C16.7479 16.3273 16.6774 16.518 16.5912 16.7071C16.0439 17.9087 16.0561 18.2848 16.6486 18.4731C17.1562 18.6345 17.2878 18.4794 17.9379 16.9553C18.4508 15.753 17.6212 14.7888 16.9749 15.836ZM8.34246 20.0038C8.18582 20.0859 7.99703 20.3148 7.92269 20.5124C7.84845 20.7098 7.74577 20.9697 7.69454 21.0898C7.09884 22.4864 7.1505 23 7.8865 23C8.29123 23 8.47086 22.7952 8.79624 21.963C8.93707 21.6028 9.09153 21.2614 9.13949 21.2044C9.58837 20.6707 8.93816 19.6913 8.34246 20.0038ZM14.4373 20.0863C14.2881 20.225 14.0743 20.581 13.9624 20.8777C13.8504 21.1745 13.6958 21.5401 13.619 21.6901C13.283 22.3458 13.5394 23 14.1322 23C14.4387 23 14.8949 22.5456 14.8949 22.2404C14.8949 22.1713 14.9885 21.9087 15.103 21.6569C15.4889 20.8078 15.5036 20.429 15.1626 20.1125C14.7968 19.7731 14.7757 19.7723 14.4373 20.0863Z" fill="#F29F23"/>
</svg>
