<svg width="24" height="24" viewBox="0 0 24 24" fill="none" xmlns="http://www.w3.org/2000/svg">
<path fill-rule="evenodd" clip-rule="evenodd" d="M10.5261 1.11203C9.39107 1.36102 8.3623 1.82601 7.38486 2.53214C6.79079 2.96133 5.64429 4.19947 5.19029 4.90232C4.71984 5.6306 4.59481 5.75329 4.25842 5.81649C1.9869 6.24318 0.340292 9.22288 1.25941 11.2434C1.38487 11.5191 1.48744 11.7739 1.48744 11.8097C1.48744 11.9979 2.49987 13.0836 2.92749 13.3538C4.07072 14.0766 3.70894 14.0489 12.0063 14.0461C20.4956 14.0432 20.2112 14.0692 21.3817 13.1843C24.1631 11.0813 23.1735 6.37984 19.8299 5.81245C19.4634 5.75034 18.928 5.22465 18.928 4.92699C18.928 4.51428 16.8036 2.48247 15.893 2.02435C15.6139 1.88387 15.3609 1.74186 15.3309 1.70878C14.84 1.16683 11.9264 0.804981 10.5261 1.11203ZM13.4157 2.4661C13.4485 2.51926 13.6583 2.59719 13.8819 2.63922C14.9134 2.83297 16.6691 4.08617 17.4004 5.15054C17.8153 5.75438 17.8184 5.75274 16.212 5.75471C14.7554 5.75656 14.6386 5.78385 14.5247 6.14985C14.2774 6.94406 14.6299 7.05954 17.3069 7.0614C21.749 7.06456 23.6143 10.6286 20.0949 12.3887L19.6127 12.6298H12.0249C3.48297 12.6298 4.04434 12.6833 3.17471 11.7867C1.59318 10.1559 2.78524 7.06293 4.9954 7.06293C5.34922 7.06293 5.8829 6.594 6.01959 6.16306C6.19062 5.62329 7.14865 4.47094 8.05948 3.70926C8.42759 3.40144 9.6759 2.76354 10.3167 2.55582C10.8643 2.37834 13.3177 2.30728 13.4157 2.4661ZM6.07246 15.7039C5.95157 15.8338 5.79614 16.1162 5.72692 16.3316C5.65781 16.5469 5.5633 16.7722 5.51698 16.8323C5.36056 17.0353 5.18179 17.8785 5.24981 18.093C5.4845 18.8335 6.69934 18.3514 6.72332 17.5083C6.72539 17.4367 6.82175 17.1816 6.93762 16.9414C7.44034 15.8993 6.77542 14.9484 6.07246 15.7039ZM11.6289 15.6265C11.4636 15.8261 11.0798 16.5747 11.0798 16.6976C11.0798 16.7482 10.9793 17.0107 10.8563 17.2809C10.6188 17.803 10.651 18.1487 10.9594 18.3838C11.5381 18.8252 12.0492 18.2172 12.6029 16.4289C12.8233 15.717 12.069 15.0956 11.6289 15.6265ZM16.9749 15.8355C16.8501 16.0376 16.7479 16.239 16.7479 16.2829C16.7479 16.3268 16.6774 16.5175 16.5912 16.7066C16.0439 17.9082 16.0561 18.2844 16.6486 18.4727C17.1562 18.634 17.2878 18.4789 17.9379 16.9549C18.4508 15.7525 17.6212 14.7884 16.9749 15.8355ZM8.34246 20.0033C8.18582 20.0854 7.99703 20.3143 7.92269 20.5119C7.84845 20.7093 7.74577 20.9692 7.69454 21.0893C7.09884 22.4859 7.1505 22.9995 7.8865 22.9995C8.29123 22.9995 8.47086 22.7947 8.79624 21.9625C8.93707 21.6023 9.09153 21.2609 9.13949 21.2039C9.58837 20.6703 8.93816 19.6908 8.34246 20.0033ZM14.4373 20.0858C14.2881 20.2245 14.0743 20.5805 13.9624 20.8772C13.8504 21.174 13.6958 21.5396 13.619 21.6897C13.283 22.3453 13.5394 22.9995 14.1322 22.9995C14.4387 22.9995 14.8949 22.5451 14.8949 22.2399C14.8949 22.1708 14.9885 21.9082 15.103 21.6564C15.4889 20.8074 15.5036 20.4285 15.1626 20.112C14.7968 19.7726 14.7757 19.7718 14.4373 20.0858Z" fill="#401D73"/>
</svg>
