<svg width="18" height="19" viewBox="0 0 18 19" fill="none" xmlns="http://www.w3.org/2000/svg">
<path d="M15.137 2.75013C12.6951 2.84044 11.9474 4.21847 11.2881 5.43419C10.7249 6.47261 10.2799 7.29264 8.88703 7.29264C8.88573 7.29264 8.88462 7.29304 8.88342 7.29304C8.87779 7.29304 8.87217 7.29264 8.86654 7.29264C8.8568 7.29264 8.84706 7.29324 8.83721 7.29334C8.8348 7.29324 8.83279 7.29264 8.83048 7.29264C7.43739 7.29264 6.99261 6.47259 6.4291 5.43419C5.76958 4.21839 5.02204 2.84039 2.58019 2.75013C2.40732 2.74511 2.25676 2.88092 2.25022 3.0566C2.24369 3.23228 2.3808 3.38003 2.55648 3.38646C4.63543 3.4634 5.23488 4.56832 5.86925 5.73801C6.25075 6.44114 6.64279 7.15772 7.36017 7.57246C5.78033 8.17986 4.6558 9.71228 4.6558 11.5034C4.6558 13.8251 6.54469 15.7139 8.86651 15.7139C11.188 15.7139 13.077 13.825 13.077 11.5034C13.077 9.70883 11.9481 8.17366 10.3633 7.56861C11.0766 7.15345 11.4675 6.43908 11.8479 5.73798C12.4823 4.56808 13.0817 3.46337 15.1607 3.38643C15.3364 3.37991 15.4736 3.23225 15.467 3.05657C15.4606 2.88109 15.3135 2.74599 15.1372 2.75011L15.137 2.75013ZM12.4401 11.5033C12.4401 13.474 10.837 15.077 8.86633 15.077C6.89587 15.077 5.29256 13.474 5.29256 11.5033C5.29256 9.53253 6.8959 7.92976 8.86659 7.92976C10.8373 7.92976 12.4401 9.53269 12.4401 11.5033Z" fill="#401D73"/>
</svg>
