<svg width="18" height="18" viewBox="0 0 18 18" fill="none" xmlns="http://www.w3.org/2000/svg">
<path d="M13.7505 13.3655C13.5877 13.3038 13.4055 13.3865 13.3443 13.5498C13.1189 14.1492 12.537 14.5518 11.8966 14.5518C11.0437 14.5518 10.3499 13.8581 10.3499 13.0052C10.3499 12.6738 10.5043 12.3882 10.6493 12.0903C10.7744 11.8333 13.3421 7.30849 13.3421 7.30849C13.3441 7.30507 13.345 7.30126 13.3468 7.29764C13.3487 7.29403 13.3512 7.29101 13.353 7.28709C13.5702 6.82172 13.6851 6.30404 13.6851 5.79034C13.6851 3.83817 12.0969 2.25 10.1448 2.25C8.19248 2.2502 6.60416 3.83845 6.60416 5.79086C6.60416 6.29961 6.71184 6.7924 6.91504 7.24341C6.73233 7.20253 6.54309 7.17922 6.34791 7.17922C4.91545 7.17922 3.75 8.34459 3.75 9.77739C3.75 11.2097 4.91537 12.375 6.34791 12.375C7.78038 12.375 8.94609 11.2095 8.94609 9.77739C8.94609 9.0162 8.61522 8.33276 8.09188 7.85725C8.08555 7.84932 8.08023 7.84108 8.0732 7.83375C7.5331 7.28601 7.23527 6.56048 7.23527 5.79098C7.23527 4.18664 8.54048 2.88167 10.1448 2.88167C11.7492 2.88167 13.0542 4.18677 13.0542 5.79098C13.0542 6.21036 12.9609 6.63253 12.7848 7.013C12.7848 7.013 10.2113 11.5863 10.1218 11.7452C9.89889 12.141 9.71899 12.5503 9.71899 13.0055C9.71899 14.2063 10.6959 15.1832 11.8967 15.1832C12.7984 15.1832 13.6176 14.6161 13.9348 13.7721C13.9965 13.6091 13.914 13.4272 13.7508 13.3657L13.7505 13.3655ZM8.31506 9.77703C8.31506 10.8614 7.43275 11.7438 6.34802 11.7438C5.2636 11.7438 4.38109 10.8614 4.38109 9.77703C4.38109 8.69241 5.2635 7.81 6.34802 7.81C7.43265 7.81 8.31506 8.69241 8.31506 9.77703Z" fill="#401D73"/>
</svg>
