<svg width="12" height="13" viewBox="0 0 12 13" fill="none" xmlns="http://www.w3.org/2000/svg">
<path d="M8.02974 10.2448V10.9091L3.07418 10.9091L3.07418 10.2448C3.07405 9.78258 3.20614 9.32976 3.45524 8.9386C3.70434 8.54744 4.06031 8.23389 4.48208 8.03425L4.48214 8.03422C4.87883 7.84578 5.24085 7.44894 5.24085 6.92405V6.42263C5.24085 5.89774 4.87883 5.5009 4.48214 5.31246L4.48208 5.31243C4.06031 5.11279 3.70434 4.79924 3.45524 4.40808C3.20614 4.01692 3.07405 3.5641 3.07418 3.10193V3.10191V2.43763L8.02974 2.43763V3.10191V3.10193C8.02987 3.5641 7.89778 4.01692 7.64868 4.40808C7.39958 4.79924 7.04361 5.11279 6.62185 5.31243L6.62178 5.31246C6.22509 5.5009 5.86307 5.89774 5.86307 6.42263V6.92405C5.86307 7.44967 6.22511 7.84579 6.62178 8.03422L6.62185 8.03425C7.04361 8.23389 7.39958 8.54744 7.64868 8.9386C7.89778 9.32976 8.02987 9.78258 8.02974 10.2448ZM1.28924 1.74239C1.21208 1.8187 1.16863 1.92232 1.16863 2.03048C1.16863 2.13864 1.21208 2.24226 1.28924 2.31857C1.36638 2.39486 1.47088 2.43763 1.57974 2.43763H2.25196V3.1019C2.25196 3.1019 2.25196 3.10191 2.25196 3.10191C2.25181 3.71791 2.42787 4.32134 2.75974 4.8425C3.09162 5.36365 3.56574 5.78124 4.12729 6.0471C4.32352 6.14048 4.41863 6.29548 4.41863 6.42334V6.92334C4.41863 7.0513 4.32413 7.20627 4.12727 7.29959C3.56573 7.56545 3.09161 7.98303 2.75974 8.50418C2.42787 9.02534 2.25181 9.62878 2.25196 10.2448L2.25196 10.9091H1.57974C1.47088 10.9091 1.36638 10.9518 1.28924 11.0281C1.21208 11.1044 1.16863 11.208 1.16863 11.3162C1.16863 11.4244 1.21208 11.528 1.28924 11.6043C1.36638 11.6806 1.47088 11.7233 1.57974 11.7233L9.52418 11.7233C9.63304 11.7233 9.73755 11.6806 9.81469 11.6043C9.89184 11.528 9.93529 11.4244 9.93529 11.3162C9.93529 11.208 9.89184 11.1044 9.81469 11.0281C9.73755 10.9518 9.63304 10.9091 9.52418 10.9091H8.85196V10.2448C8.85211 9.62878 8.67605 9.02534 8.34418 8.50418C8.01231 7.98303 7.53818 7.56544 6.97663 7.29958C6.78041 7.2062 6.68529 7.05121 6.68529 6.92334V6.42334C6.68529 6.29538 6.77979 6.14041 6.97666 6.04709C7.53819 5.78123 8.01231 5.36365 8.34418 4.8425C8.67605 4.32134 8.85211 3.71791 8.85196 3.10191C8.85196 3.10191 8.85196 3.1019 8.85196 3.1019V2.43763H9.52418C9.63304 2.43763 9.73755 2.39486 9.81469 2.31857C9.89184 2.24226 9.93529 2.13864 9.93529 2.03048C9.93529 1.92232 9.89184 1.8187 9.81469 1.74239C9.73755 1.6661 9.63304 1.62334 9.52418 1.62334L1.57974 1.62334C1.47088 1.62334 1.36638 1.6661 1.28924 1.74239Z" fill="#F29F23" stroke="#F29F23" stroke-width="0.1"/>
</svg>
