<svg width="26" height="26" viewBox="0 0 26 26" fill="none" xmlns="http://www.w3.org/2000/svg">
<path d="M13.0312 15.842V22.2962M13.0312 22.2962C12.6365 22.085 12.0805 21.8527 11.4055 21.6545M13.0312 22.2962C13.5872 22.0275 14.1458 21.8165 14.6998 21.6545M6.02783 11.6696C5.67765 11.6696 5.08987 11.8869 4.83975 11.9955L4.66483 13.1038M6.02783 11.6696C5.71518 11.1698 5.32749 9.84418 6.27795 8.54034M6.02783 11.6696C6.87824 13.3386 8.67823 13.5819 9.47193 13.4951M6.27795 8.54034C6.09036 8.04052 6.00282 6.94962 7.15336 6.58454M6.27795 8.54034C6.3606 8.90542 6.64587 9.17054 6.77819 9.25745M7.15336 6.58454C7.17421 5.88914 7.67862 4.57659 9.52951 4.88951M7.15336 6.58454C8.00378 6.48024 8.42481 7.06262 8.52902 7.36684M9.52951 4.88951C9.98807 4.19411 11.3303 3.1032 13.0312 4.30276M9.52951 4.88951C9.27089 5.20245 9.21332 5.71529 9.21686 5.93259M13.0312 4.30276C13.5731 3.8464 14.8446 3.29877 15.5949 4.75911M13.0312 4.30276C12.781 4.71999 12.8853 5.172 12.9686 5.34585M15.5949 4.75911C16.512 4.56353 18.4713 4.82431 18.9715 7.43203M15.5949 4.75911C15.695 5.1242 15.6366 5.30239 15.5949 5.34585M18.9715 7.43203C19.5552 7.51896 20.5973 8.11005 20.0971 9.77899M18.9715 7.43203C18.3213 7.32772 17.9502 7.60589 17.846 7.75801M20.0971 9.77899C20.1909 10.2678 20.2287 10.9508 20.1158 11.6696M20.0971 9.77899C19.847 10.2484 19.4926 10.4092 19.3467 10.4309M17.2207 15.0597C17.7153 14.9199 18.1324 14.7182 18.483 14.4729M16.7204 12.5171C17.5458 13.0386 19.3804 13.5993 20.1158 11.6696M16.7204 12.5171C15.9201 13.143 14.9697 12.5606 14.5944 12.1911M16.7204 12.5171C17.3207 12.0999 17.0956 11.1698 16.908 10.7569M20.1158 11.6696C19.9571 12.6798 19.5006 13.7607 18.483 14.4729M20.1158 11.6696C20.4639 11.7131 21.1976 11.8391 21.3477 11.9955C21.3836 12.033 21.4676 12.4479 21.5815 13.1038M9.71709 11.0828C9.57081 11.3661 9.42313 11.763 9.35481 12.1911M15.9076 13.9514C15.4658 14.2146 15.0086 14.3025 14.5944 14.2966M9.47193 13.4951C9.64265 13.8973 9.96958 14.2495 10.53 14.4729C12.2308 15.151 13.0729 14.4078 13.2813 13.9514C13.5349 14.1025 14.0237 14.2886 14.5944 14.2966M9.47193 13.4951C9.29769 13.0845 9.28608 12.6219 9.35481 12.1911M18.483 14.4729C18.9169 15.1031 19.5468 16.4417 18.5964 16.7547C17.6459 17.0677 17.0748 16.407 16.908 16.0376C16.1369 16.0069 14.5944 15.616 14.5944 14.2966M11.6555 12.1911C12.1766 12.2129 13.2938 11.9303 13.594 10.6265M13.594 10.6265C12.1433 10.6265 11.6972 10.0615 11.6555 9.77899M13.594 10.6265C15.1447 10.6265 15.5741 9.36611 15.5949 8.7359M10.2173 8.99667C10.1965 8.43167 10.5175 7.27557 11.9682 7.17126M8.09132 10.6265C8.05822 11.148 8.2646 12.1911 9.35481 12.1911M4.66483 13.1038L3.21397 22.2962C6.25624 20.7689 9.37137 21.0573 11.4055 21.6545M4.66483 13.1038H3.21397L0.962891 24.3171H11.0302M11.0302 24.3171C11.6347 24.8604 13.3438 25.621 15.3448 24.3171M11.0302 24.3171L11.4055 21.6545M15.3448 24.3171H25.037L22.9734 13.1038H21.5815M15.3448 24.3171L14.6998 21.6545M21.5815 13.1038C21.9442 15.1943 22.6086 19.7323 22.9734 22.2962C21.5861 21.5823 18.2331 20.6217 14.6998 21.6545M16.3453 2.21658L17.2207 0.325967M12.9686 1.10828V0M9.71709 2.21658L8.90421 0.325967M6.65313 3.9768L5.71518 2.99889M4.96481 7.17126L3.21397 6.38894M19.4718 3.9768L20.4097 2.99889M21.0351 7.17126L22.9734 6.38894" stroke="#401D73"/>
</svg>
