<svg width="28" height="26" viewBox="0 0 28 26" fill="none" xmlns="http://www.w3.org/2000/svg">
<g clip-path="url(#clip0_26_2004)">
<path d="M11.6176 8.4015V9.83854V11.2757M13.0621 8.4015V9.83854V11.2757M14.5065 8.4015V9.83854V11.2757M16.2398 8.4015V9.83854V11.2757M7.28426 18.7485H8.43982L9.59535 17.5988H11.531M7.28426 18.7485V20.4729M7.28426 18.7485V16.5928M7.28426 18.7485L5.83982 19.3232M11.531 17.5988L11.3287 15.5871C11.1741 14.0484 12.3823 12.7127 13.9287 12.7127C15.4752 12.7127 16.6833 14.0484 16.5287 15.5871L16.1532 19.3232M11.531 17.5988L11.7042 19.3232M7.28426 20.4729H8.43982L9.59535 19.3232H11.7042M7.28426 20.4729V20.7603M11.7042 19.3232C11.8191 20.4656 12.7806 21.3352 13.9287 21.3352C15.0768 21.3352 16.0383 20.4656 16.1532 19.3232M16.5287 17.5988H17.9732L19.1287 18.7485H20.5732M20.5732 18.7485V20.4729M20.5732 18.7485V16.5928M20.5732 18.7485L21.7287 19.3232M16.1532 19.3232H17.9732L19.1287 20.4729H20.5732M20.5732 20.4729V20.7603M7.28426 6.67701H5.73665C4.19814 6.67701 2.95094 7.92422 2.95094 9.46275V10.6696C2.95094 11.6392 3.73698 12.4254 4.70662 12.4254C6.00307 12.4254 7.26281 12.8558 8.28812 13.6492L9.30647 14.4372H17.6842L18.8761 13.6071C19.9809 12.8377 21.2949 12.4254 22.6412 12.4254C23.7328 12.4254 24.6176 11.5404 24.6176 10.4489V9.46275C24.6176 7.92422 23.3704 6.67701 21.8319 6.67701H20.2842M7.28426 6.67701H20.2842M7.28426 6.67701L9.14453 4.82624M10.1732 3.80286H11.0398M10.1732 3.80286L8.72871 0.928711H7.28426M10.1732 3.80286L9.14453 4.82624M17.3953 3.80286H16.8176M17.3953 3.80286L18.551 0.928711H20.2842M17.3953 3.80286L18.331 4.82624M20.2842 6.67701L18.331 4.82624M11.0398 3.80286V2.78585C11.0398 1.76018 11.8713 0.928711 12.897 0.928711H14.9604C15.9861 0.928711 16.8176 1.76018 16.8176 2.78585V3.80286M11.0398 3.80286H16.8176M9.14453 4.82624L8.15093 2.6532H7.28426M7.28426 0.928711H4.10207C3.62586 0.928711 3.23982 1.31476 3.23982 1.79095C3.23982 2.26716 3.62586 2.6532 4.10207 2.6532H7.28426M7.28426 0.928711V2.6532M18.331 4.82624L19.4176 2.6532H20.2842M20.2842 0.928711H23.1776C23.6538 0.928711 24.0398 1.31476 24.0398 1.79095C24.0398 2.26716 23.6538 2.6532 23.1776 2.6532H20.2842M20.2842 0.928711V2.6532M20.5732 16.5928C20.5732 15.4024 21.5383 14.4372 22.7288 14.4372H24.7731C25.9636 14.4372 26.9287 15.4024 26.9287 16.5928M20.5732 16.5928L21.7287 17.3114M21.7287 21.3352L20.5732 20.7603M20.5732 20.7603V22.4848M21.7287 23.0596L20.5732 22.4848M20.5732 22.4848C20.5732 23.9135 21.7313 25.0716 23.1599 25.0716H24.342C25.7706 25.0716 26.9287 23.9135 26.9287 22.4848M25.4842 17.3114L26.9287 16.5928M26.9287 16.5928V18.7485M25.4842 19.3232L26.9287 18.7485M26.9287 18.7485V20.7603M25.4842 21.3352L26.9287 20.7603M26.9287 20.7603V22.4848M25.4842 23.0596L26.9287 22.4848M7.28426 16.5928C7.28426 15.4024 6.31917 14.4372 5.12866 14.4372H3.08432C1.89381 14.4372 0.928711 15.4024 0.928711 16.5928M7.28426 16.5928L5.83982 17.3114M7.28426 20.7603L5.83982 21.3352M7.28426 20.7603V22.4848M7.28426 22.4848C7.28426 23.9135 6.12615 25.0716 4.69753 25.0716H3.51544C2.08683 25.0716 0.928711 23.9135 0.928711 22.4848M7.28426 22.4848L5.83982 23.0596M2.37316 23.0596L0.928711 22.4848M0.928711 22.4848V20.7603M2.37316 21.3352L0.928711 20.7603M0.928711 20.7603V18.7485M2.37316 19.3232L0.928711 18.7485M0.928711 18.7485V16.5928M2.37316 17.3114L0.928711 16.5928M4.68426 8.11409V9.55115L6.12871 10.9882H9.0176V8.11409H4.68426ZM18.551 8.11409V10.9882H21.4398L23.1732 9.26374V8.11409H18.551ZM15.0842 18.7485C15.0842 19.3834 14.5637 19.8981 13.9287 19.8981C13.2938 19.8981 12.7732 19.3834 12.7732 18.7485C12.7732 18.1135 13.2938 17.5988 13.9287 17.5988C14.5637 17.5988 15.0842 18.1135 15.0842 18.7485Z" stroke="#401D73"/>
</g>
<defs>
<clipPath id="clip0_26_2004">
<rect width="27.8571" height="26" fill="white"/>
</clipPath>
</defs>
</svg>
