<svg width="28" height="26" viewBox="0 0 28 26" fill="none" xmlns="http://www.w3.org/2000/svg">
<path d="M5.15385 14.3333V13.1667H1V23.1667H5.15385V22M5.15385 14.3333H8.32846C9.49533 14.3333 10.6437 14.6248 11.6694 15.1812L12.1756 15.4557C13.4389 16.1411 14.8534 16.5 16.2906 16.5H17.6228C18.5893 16.5 19.3728 17.2835 19.3728 18.25C19.3728 19.2165 18.5893 20 17.6228 20H12.1834M5.15385 14.3333V22M18.8935 19.5L25.201 17.0828C26.0499 16.7575 27.004 17.1621 27.3603 17.9984C27.7171 18.836 27.3462 19.8057 26.5215 20.1914L18.7729 23.815C15.8386 25.1872 12.4239 25.0671 9.59329 23.4922L8.44695 22.8544C7.43982 22.2941 6.30636 22 5.15385 22M12.8225 9.66666L16.3373 13.3333L21.8757 7.55564C23.0665 6.31338 23.0665 4.35327 21.8757 3.11101C20.3884 1.5595 17.8265 1.87838 16.7649 3.74713L16.3373 4.49999L15.9096 3.74712C14.8481 1.87838 12.2861 1.5595 10.7989 3.11101C9.6081 4.35327 9.6081 6.31338 10.7989 7.55564L11.0651 7.83332" stroke="#401D73"/>
</svg>
