<svg width="29" height="26" viewBox="0 0 29 26" fill="none" xmlns="http://www.w3.org/2000/svg">
<g clip-path="url(#clip0_26_2048)">
<path d="M19.5992 18.8096V17.546H21.6549V18.8096M19.5992 18.8096V19.0453C19.5992 19.613 20.0594 20.0732 20.6271 20.0732C21.1948 20.0732 21.6549 19.613 21.6549 19.0453V18.8096M19.5992 18.8096H13.879M21.6549 18.8096H27.2857M13.879 18.8096C13.5828 18.8096 13.3428 18.5695 13.3428 18.2733V15.9936C13.3428 14.9568 14.1832 14.1163 15.2201 14.1163H17.8117M13.879 18.8096V24.0742C13.879 24.606 14.3102 25.0371 14.842 25.0371H26.3227C26.8546 25.0371 27.2857 24.606 27.2857 24.0742V18.8096M27.2857 18.8096C27.5819 18.8096 27.822 18.5695 27.822 18.2733V15.9936C27.822 14.9568 26.9815 14.1163 25.9447 14.1163H23.3531M17.8117 14.1163C17.8117 12.92 18.7815 11.9502 19.9778 11.9502H21.187C22.3833 11.9502 23.3531 12.92 23.3531 14.1163M17.8117 14.1163H23.3531" stroke="#401D73"/>
<path d="M24.7585 11.0429C23.6757 5.83848 19.0292 1.92578 13.4612 1.92578C11.5007 1.92578 9.65452 2.41084 8.03786 3.26654M12.3797 24.7585C6.51601 24.2177 1.92578 19.324 1.92578 13.3669C1.92578 11.4913 2.38086 9.72106 3.18746 8.15888" stroke="#401D73"/>
<path d="M12.5109 21.6956C8.27596 21.2099 4.98926 17.6679 4.98926 13.3706C4.98926 12.3015 5.19269 11.2791 5.56356 10.3388M21.6961 11.0522C20.674 7.55072 17.395 4.98877 13.5077 4.98877C12.3173 4.98877 11.1837 5.22907 10.1547 5.66306" stroke="#401D73"/>
<path d="M13.3421 13.0637L9.77451 9.47081M5.49339 5.15936V1.92578L9.77451 6.23723V9.47081M5.49339 5.15936L9.77451 9.47081M5.49339 5.15936H1.92578L6.20691 9.47081H9.77451" stroke="#401D73"/>
<path d="M17.2403 10.2243C16.3347 9.23285 15.0187 8.60889 13.554 8.60889C12.7644 8.60889 12.0181 8.79019 11.356 9.11264M11.356 17.7976C9.72751 17.0046 8.6084 15.358 8.6084 13.4552C8.6084 12.7266 8.77245 12.0356 9.06633 11.4157" stroke="#401D73"/>
</g>
<defs>
<clipPath id="clip0_26_2048">
<rect width="28.8889" height="26" fill="white"/>
</clipPath>
</defs>
</svg>
