<svg width="24" height="24" viewBox="0 0 24 24" fill="none" xmlns="http://www.w3.org/2000/svg">
<path fill-rule="evenodd" clip-rule="evenodd" d="M7.22648 5.97768L3.05847 8.17167L3.02923 8.66622L3 9.16078L7.21767 11.3914C12.2649 14.0608 11.1166 14.0625 16.2082 11.3771L20.4349 9.14792L20.4699 8.68534L20.5048 8.22277L16.2018 5.99761C11.0547 3.33618 12.2397 3.33873 7.22648 5.97768ZM15.2943 6.68545C17.2822 7.71396 18.9451 8.58743 18.9898 8.62636C19.0344 8.66541 17.4063 9.57086 15.3718 10.6385L11.6727 12.5798L8.04059 10.6444C6.04288 9.58002 4.44812 8.67202 4.49661 8.62682C4.56952 8.55881 11.5747 4.83295 11.6547 4.81962C11.6685 4.8173 13.3064 5.65694 15.2943 6.68545ZM18.7325 13.6724V16.1562L17.7509 17.6991L16.7692 19.2419L16.9519 19.621L17.1346 20L19.3654 19.9686L21.5961 19.9372L21.7981 19.5896L22 19.2419L20.8946 17.6885L19.7892 16.1351V13.6618V11.1886H19.2609H18.7325V13.6724ZM5.81757 13.2649C5.81757 14.6936 6.10522 15.0388 8.13064 16.0405C11.8851 17.8974 17.5584 16.2653 17.5584 13.3282V12.3474H17.0301H16.5018V13.1383C16.5018 14.0497 16.4331 14.1441 15.269 14.8346C12.7152 16.3493 9.80782 16.1653 7.25583 14.3275L6.75684 13.9681V13.0998V12.2315H6.28721H5.81757V13.2649ZM19.936 18.1354C20.2427 18.5744 20.4936 18.9638 20.4936 19.0008C20.4936 19.0379 19.9917 19.0681 19.3783 19.0681C18.0862 19.0681 18.0986 19.0875 18.7431 18.0803C19.3274 17.1671 19.257 17.1638 19.936 18.1354Z" fill="#401D73"/>
</svg>
