<svg width="24" height="24" viewBox="0 0 24 24" fill="none" xmlns="http://www.w3.org/2000/svg">
<path fill-rule="evenodd" clip-rule="evenodd" d="M9.96322 5.20159C9.35366 5.3542 8.83269 5.87635 8.72069 6.44717L8.65854 6.76348H9.10976C9.41942 6.76348 9.56098 6.72299 9.56098 6.63442C9.56098 5.76939 14.1139 5.6671 14.4408 6.52483C14.5672 6.85642 15.3171 6.88581 15.3171 6.55919C15.3171 5.37969 12.3037 4.61559 9.96322 5.20159ZM5.03602 7.64145C4.88148 7.68836 4.64685 7.82754 4.51456 7.95066C3.98822 8.44108 4.00002 8.3059 4.00002 13.8408V18.9814L4.23797 19.3307C4.71436 20.0301 4.35983 19.9998 12.0653 19.9998H18.9791L19.3292 19.7624C20.0159 19.297 20 19.4394 20 13.7463V8.64148L19.7805 8.31972C19.2435 7.53264 19.8588 7.59289 12.1636 7.57352C8.39806 7.56398 5.19065 7.59454 5.03602 7.64145ZM18.7768 8.5314C19.21 8.72829 19.2323 9.01706 19.2005 14.036L19.1707 18.7293L18.9485 18.9509L18.7262 19.1725H12H5.27377L5.05153 18.9509L4.82929 18.7293L4.79953 14.036C4.76821 9.09346 4.79436 8.72956 5.19446 8.53705C5.51719 8.38191 18.4359 8.37646 18.7768 8.5314ZM10.5155 11.1019L10.4878 12.1364L9.46342 12.1507L8.43903 12.1651L8.4121 13.6493L8.38518 15.1335H9.45756H10.53L10.5577 16.1598L10.5854 17.1862L12 17.1921L13.4146 17.198V16.1657V15.1333L14.4659 15.1334L15.5173 15.1335L15.4903 13.6493L15.4634 12.1651H14.4878H13.5122L13.4634 11.1431L13.4146 10.1212L11.9789 10.0943L10.5432 10.0674L10.5155 11.1019ZM12.5854 12.0191V13.0897H13.6097H14.6341V13.6736V14.2576H13.6131H12.592L12.5643 15.3038L12.5366 16.3501L11.9756 16.3793L11.4146 16.4085V15.333V14.2576H10.3415H9.2683V13.6769V13.0963L10.3171 13.0686L11.3659 13.041L11.3936 11.9947L11.4213 10.9485H12.0033H12.5854V12.0191Z" fill="#401D73"/>
</svg>
