<svg width="24" height="24" viewBox="0 0 24 24" fill="none" xmlns="http://www.w3.org/2000/svg">
<path fill-rule="evenodd" clip-rule="evenodd" d="M16.3634 5.56005L14.6501 7.1201L14.8835 7.96623L15.1168 8.81235L13.3735 10.4557L11.63 12.099L11.9485 12.386C12.3922 12.7855 12.3 12.839 14.1309 11.1205L15.7847 9.56805L16.6991 9.76446L17.6133 9.96076L19.3066 8.36867L21 6.77668L20.866 6.39518C20.7289 6.00437 20.7023 5.99062 19.6047 5.74186C19.3429 5.68253 19.2813 5.58247 19.1164 4.94967C18.932 4.24242 18.6874 4 18.1581 4C18.1134 4 17.3057 4.70207 16.3634 5.56005ZM10.0965 5.05692C2.16449 7.01169 1.90192 17.2976 9.72353 19.6661C14.6228 21.1495 20.3859 17.4776 20.4087 12.8579L20.4106 12.4613H19.9044H19.3982L19.3964 12.8579C19.3672 19.4311 8.74831 21.3328 5.69899 15.311C3.59746 11.161 6.78312 5.81717 11.3709 5.79654C12.0542 5.79347 12.1984 5.69945 12.1984 5.25682V4.84613L11.5516 4.85195C11.1959 4.85512 10.541 4.94745 10.0965 5.05692ZM18.3296 5.90379C18.4414 6.40798 18.5511 6.51036 19.0672 6.59232C19.6561 6.68582 19.6725 6.65515 18.3923 7.85422L17.274 8.90173L16.6713 8.77491L16.0685 8.64799L15.9337 8.04418L15.7991 7.44036L16.9481 6.35626C18.1468 5.22551 18.1768 5.21567 18.3296 5.90379ZM11.0449 8.6628C7.84834 9.37112 6.81383 13.1276 9.24104 15.2132C11.618 17.2557 15.7309 15.9244 16.1001 12.9931L16.1672 12.4613H15.6452C15.1511 12.4613 15.1232 12.4768 15.1222 12.7521C15.1162 14.3404 12.9141 15.6624 11.1123 15.1594C7.98142 14.2852 8.27346 9.99746 11.4948 9.5433L11.9734 9.47582V9.01183C11.9734 8.49611 11.908 8.47147 11.0449 8.6628Z" fill="#401D73"/>
</svg>
