<svg width="24" height="24" viewBox="0 0 24 24" fill="none" xmlns="http://www.w3.org/2000/svg">
<path fill-rule="evenodd" clip-rule="evenodd" d="M8.74369 4.3504C5.97349 5.70948 6.93644 9.2455 10.7787 11.8223C12.1313 12.7293 12.9049 12.4541 15.0863 10.2899C18.2509 7.1502 16.343 2.53621 12.6716 4.45032L11.9919 4.80455L11.3122 4.45032C10.4573 4.00447 9.52295 3.96828 8.74369 4.3504ZM3.0867 5.13545C0.65293 8.41428 2.38544 13.1703 7.49914 17.2477L8.52676 18.0671L8.88163 17.6734L9.2365 17.2797L8.88527 16.9891C5.03043 13.7984 3.55367 11.8025 3.13753 9.22073C2.94014 7.99609 3.34099 6.43561 4.05474 5.6496C4.29994 5.37966 4.27301 5.26675 3.87361 4.88739L3.52007 4.55168L3.0867 5.13545ZM5.51828 4.96471C3.18181 8.00066 5.1981 12.2052 10.8205 16.0216L11.9092 16.7606L12.4169 16.4937C17.9996 13.5585 21.1499 7.31276 18.3255 4.77954C18.0109 4.49733 17.2978 5.17068 17.5484 5.51312C19.3744 8.00799 17.9079 11.2012 13.4144 14.5155C11.9477 15.5973 12.0618 15.5988 10.5245 14.4794C6.33394 11.4285 4.62897 7.97685 6.24574 5.81745C6.60838 5.333 6.60559 5.29272 6.18192 4.8904L5.83154 4.55769L5.51828 4.96471ZM20.0806 4.91637C19.6819 5.32868 19.6811 5.29549 20.1085 5.92362C22.4377 9.34687 19.5124 14.3358 12.6204 18.6939L11.7323 19.2554L11.9542 19.632C12.2802 20.1851 12.3162 20.1764 13.8227 19.1789C20.8758 14.5087 23.6019 9.32847 21.0751 5.39781C20.5394 4.56443 20.4586 4.52535 20.0806 4.91637ZM15.0631 5.55172C16.5026 6.72767 15.5089 8.95152 12.6822 10.8794L11.9919 11.3503L11.2977 10.8794C8.41817 8.92627 7.446 6.65998 8.98767 5.49461C9.76196 4.90928 10.8529 5.1399 11.6591 6.05926L11.9937 6.44066L12.2407 6.11661C12.9989 5.12186 14.2343 4.87465 15.0631 5.55172Z" fill="#401D73"/>
</svg>
