<svg width="25" height="24" viewBox="0 0 25 24" fill="none" xmlns="http://www.w3.org/2000/svg">
<path d="M18.0683 9.60667C18.07 8.16736 17.5174 6.78266 16.5254 5.73993C15.5332 4.69716 14.1777 4.07652 12.7403 4.00662C11.3027 3.9367 9.89334 4.42302 8.80459 5.36464C7.71585 6.30626 7.03192 7.63086 6.89395 9.06338C6.75601 10.496 7.17507 11.9268 8.06409 13.0587C8.95298 14.1907 10.2436 14.9368 11.6682 15.1423V16.0064H10.8681C10.5823 16.0064 10.3182 16.1589 10.1753 16.4064C10.0324 16.6539 10.0324 16.9589 10.1753 17.2064C10.3182 17.454 10.5823 17.6064 10.8681 17.6064H11.6681V19.2064H11.6682C11.6682 19.4922 11.8206 19.7563 12.0681 19.8992C12.3156 20.0421 12.6207 20.0421 12.8682 19.8992C13.1157 19.7563 13.2681 19.4922 13.2681 19.2064V17.6064H14.0682C14.354 17.6064 14.6181 17.4539 14.761 17.2064C14.9039 16.9589 14.9039 16.6539 14.761 16.4064C14.6181 16.1588 14.354 16.0064 14.0682 16.0064H13.2681V15.1423C14.5999 14.9502 15.8178 14.2849 16.6991 13.2684C17.5805 12.2518 18.0665 10.9519 18.068 9.60636L18.0683 9.60667ZM8.46825 9.60667C8.46825 8.54584 8.88973 7.52838 9.63986 6.77824C10.39 6.0281 11.4075 5.60663 12.4683 5.60663C13.5291 5.60663 14.5466 6.0281 15.2967 6.77824C16.0469 7.52838 16.4683 8.54584 16.4683 9.60667C16.4683 10.6675 16.0469 11.685 15.2967 12.4351C14.5466 13.1852 13.5291 13.6067 12.4683 13.6067C11.4075 13.6067 10.39 13.1852 9.63986 12.4351C8.88973 11.685 8.46825 10.6675 8.46825 9.60667V9.60667Z" fill="#6C5393"/>
</svg>
