<svg width="25" height="24" viewBox="0 0 25 24" fill="none" xmlns="http://www.w3.org/2000/svg">
<path fill-rule="evenodd" clip-rule="evenodd" d="M8.60129 3.82308V4.64615H7.73473C6.88874 4.64615 6.86816 4.66323 6.86816 5.36634C6.86816 6.06946 6.88874 6.08654 7.73473 6.08654H8.60129V11.7452V17.4038H9.35954H10.1178V14.2786C10.1178 10.7906 10.2599 10.3727 11.7838 9.3809C15.956 6.66557 18.1049 12.5979 14.3709 16.5236C12.2398 18.764 12.2465 21.0093 14.3867 21.8587C15.7513 22.4003 17.4903 21.2704 16.6304 20.4011C16.1645 19.9299 16.1246 19.9245 15.5228 20.2525C13.8947 21.14 13.9398 19.2553 15.5901 17.4456C20.3112 12.2691 17.1029 5.03032 11.3635 7.90903L10.1178 8.53375V7.31025V6.08654H11.6343H13.1508V5.36634V4.64615H11.6343H10.1178V3.82308C10.1178 3.01955 10.0998 3 9.35954 3C8.61927 3 8.60129 3.01955 8.60129 3.82308Z" fill="#6C5393"/>
</svg>
