<svg width="25" height="24" viewBox="0 0 25 24" fill="none" xmlns="http://www.w3.org/2000/svg">
<path d="M17.2681 4.00003C17.056 4.00003 16.8524 4.08427 16.7024 4.23427C16.5524 4.38427 16.4682 4.58783 16.4682 4.79999V9.59999C16.4683 10.5221 16.15 11.4159 15.5668 12.1303C14.9837 12.8447 14.1716 13.3355 13.2681 13.5199V4.80006C13.2681 4.51425 13.1157 4.25015 12.8682 4.10725C12.6207 3.96434 12.3156 3.96434 12.0681 4.10725C11.8206 4.25015 11.6682 4.51425 11.6682 4.80006V13.5199C10.7647 13.3355 9.95254 12.8447 9.36941 12.1303C8.78628 11.4159 8.46794 10.5221 8.46807 9.59999V4.79999C8.46807 4.51419 8.31566 4.25008 8.06816 4.10718C7.82067 3.96427 7.51558 3.96427 7.26807 4.10718C7.02056 4.25008 6.86816 4.51418 6.86816 4.79999V9.59999C6.86964 10.9454 7.35567 12.2453 8.23706 13.262C9.11844 14.2785 10.3364 14.9438 11.668 15.136V16.0001H10.8679C10.5821 16.0001 10.318 16.1525 10.1751 16.4C10.0322 16.6475 10.0322 16.9526 10.1751 17.2001C10.318 17.4476 10.5821 17.6 10.8679 17.6H11.6679V19.2H11.668C11.668 19.4858 11.8204 19.7499 12.0679 19.8928C12.3154 20.0357 12.6205 20.0357 12.868 19.8928C13.1155 19.7499 13.2679 19.4858 13.2679 19.2V17.6H14.068C14.3538 17.6 14.6179 17.4476 14.7608 17.2001C14.9037 16.9526 14.9037 16.6475 14.7608 16.4C14.6179 16.1525 14.3538 16.0001 14.068 16.0001H13.2679V15.136C14.5997 14.9438 15.8177 14.2785 16.6989 13.262C17.5803 12.2454 18.0663 10.9455 18.0678 9.59999V4.79999C18.0678 4.58785 17.9836 4.38427 17.8336 4.23427C17.6836 4.08427 17.48 4.00003 17.2678 4.00003H17.2681Z" fill="#6C5393"/>
</svg>
