<svg width="25" height="24" viewBox="0 0 25 24" fill="none" xmlns="http://www.w3.org/2000/svg">
<path d="M12.8793 4.01137C10.7576 4.01137 8.72282 4.85418 7.22248 6.35445C5.72221 7.85473 4.87939 9.88965 4.87939 12.0113C4.87939 14.1329 5.72221 16.1677 7.22248 17.6681C8.72275 19.1683 10.7577 20.0111 12.8793 20.0111C15.0009 20.0111 17.0357 19.1683 18.5361 17.6681C20.0364 16.1678 20.8792 14.1329 20.8792 12.0113C20.8792 10.607 20.5095 9.22742 19.8075 8.01114C19.1053 6.79506 18.0953 5.7851 16.8793 5.08293C15.663 4.38086 14.2835 4.01123 12.8791 4.01123L12.8793 4.01137ZM12.8793 18.4114C11.1819 18.4114 9.55398 17.737 8.35391 16.5368C7.15363 15.3366 6.4793 13.7087 6.4793 12.0114C6.4793 10.314 7.15363 8.68609 8.35391 7.48602C9.55405 6.28574 11.1819 5.61141 12.8793 5.61141C14.5766 5.61141 16.2046 6.28574 17.4047 7.48602C18.6049 8.68616 19.2793 10.314 19.2793 12.0114C19.2793 13.1348 18.9835 14.2385 18.4217 15.2113C17.86 16.1843 17.0522 16.9922 16.0792 17.5539C15.1063 18.1157 14.0026 18.4114 12.8792 18.4114L12.8793 18.4114Z" fill="#6C5393"/>
<path d="M14.4794 12.0112C14.4794 12.8948 13.763 13.6112 12.8793 13.6112C11.9957 13.6112 11.2793 12.8948 11.2793 12.0112C11.2793 11.1275 11.9957 10.4111 12.8793 10.4111C13.763 10.4111 14.4794 11.1275 14.4794 12.0112Z" fill="#6C5393"/>
</svg>
