<svg width="24" height="25" viewBox="0 0 24 25" fill="none" xmlns="http://www.w3.org/2000/svg">
<path d="M11.6326 3.87006C11.7715 3.54767 12.2285 3.54767 12.3674 3.87006L14.1883 8.09833C14.4199 8.63621 14.9269 9.00456 15.51 9.05865L20.094 9.4838C20.4435 9.51622 20.5848 9.95094 20.3211 10.1826L16.8624 13.221C16.4225 13.6075 16.2288 14.2035 16.3576 14.7748L17.3698 19.2658C17.4469 19.6082 17.0771 19.8769 16.7753 19.6977L12.8169 17.3473C12.3133 17.0483 11.6867 17.0483 11.1831 17.3473L7.22467 19.6977C6.92285 19.8769 6.55306 19.6082 6.63023 19.2658L7.64242 14.7748C7.77118 14.2035 7.57753 13.6075 7.13755 13.221L6.74156 13.6717L7.13755 13.221L3.67891 10.1826C3.41521 9.95094 3.55646 9.51622 3.90597 9.4838L8.48997 9.05865C9.07311 9.00456 9.5801 8.63621 9.81174 8.09833L11.6326 3.87006Z" fill="#FCFAFF" stroke="#401D73" stroke-width="1.2"/>
</svg>
