<svg width="18" height="18" viewBox="0 0 18 18" fill="none" xmlns="http://www.w3.org/2000/svg">
<path d="M14.5931 13.0028L13.07 12.9969H13.0689C12.9006 12.9969 12.7638 13.133 12.7632 13.3015C12.7625 13.4702 12.8988 13.6077 13.0676 13.6084L13.895 13.6114C13.7167 13.7996 13.4669 13.9115 13.2019 13.9115C12.817 13.9115 12.3394 13.594 12.3271 13.3356C12.3151 13.0768 12.3271 4.1607 12.3271 4.1607C12.3271 3.10721 11.47 2.25 10.4164 2.25C9.74283 2.25 9.1505 2.60146 8.81038 3.12981C8.46997 2.60146 7.87782 2.25 7.20403 2.25C6.57262 2.25 6.01343 2.55916 5.66539 3.03269C5.39809 2.63875 4.9467 2.37909 4.43563 2.37909C4.27261 2.37909 4.11158 2.40571 3.95729 2.45824C3.79749 2.51268 3.7119 2.68635 3.76645 2.84616C3.82059 3.00587 3.99436 3.09135 4.15427 3.03711C4.24497 3.00617 4.33969 2.9906 4.43561 2.9906C4.91716 2.9906 5.30899 3.38223 5.30899 3.86378C5.30899 3.90125 5.30638 3.93922 5.30146 3.97699C5.29955 3.99165 5.30005 4.00582 5.30036 4.02008C5.29694 4.06669 5.29312 4.11329 5.29312 4.16081V13.5288C5.29312 13.5318 5.29403 13.5347 5.29403 13.5378C5.29403 13.541 5.29312 13.544 5.29312 13.5471C5.29312 13.7061 5.41667 13.8344 5.56914 13.8344H5.6283C5.78078 13.8344 5.90432 13.7059 5.90432 13.5471V13.223V12.9969L5.90442 4.16044C5.90442 3.44407 6.48731 2.86128 7.20369 2.86128C7.92006 2.86128 8.50285 3.44407 8.50285 4.16044L8.50526 13.5315H8.50556C8.50546 13.5365 8.50416 13.5415 8.50416 13.5469C8.50416 13.7059 8.6277 13.8343 8.78017 13.8343H8.83954C8.99201 13.8343 9.11555 13.7057 9.11555 13.5469C9.11555 13.5415 9.11445 13.5365 9.11415 13.5315H9.11425L9.11666 4.16044C9.11666 3.44407 9.69955 2.86128 10.4158 2.86128C11.1324 2.86128 11.7151 3.44407 11.7151 4.16044V13.197C11.7151 13.197 11.721 13.4206 11.7223 13.4363L11.7224 13.4515L11.7234 13.4529C11.7266 13.4762 11.7318 13.5001 11.7407 13.5232C11.9764 14.1304 12.5497 14.5227 13.2013 14.5227C13.6101 14.5227 13.9976 14.3616 14.2855 14.0857V14.9382C14.2855 15.1069 14.4224 15.2436 14.5913 15.2436C14.7602 15.2436 14.8971 15.107 14.8971 14.9382V13.3084C14.8975 13.1399 14.7614 13.0033 14.593 13.0027L14.5931 13.0028Z" fill="#401D73"/>
</svg>
