<svg width="18" height="18" viewBox="0 0 18 18" fill="none" xmlns="http://www.w3.org/2000/svg">
<path d="M12.898 2.31473C12.8889 2.31182 12.8806 2.3078 12.8711 2.30569C12.8618 2.30338 12.8519 2.30268 12.8425 2.30067C12.821 2.29605 12.799 2.29304 12.7771 2.28912C12.6516 2.26531 12.5249 2.25005 12.3987 2.25005C12.2516 2.25005 12.1071 2.26732 11.965 2.29746H11.9647C11.9 2.31132 11.8361 2.32799 11.7725 2.34788C11.7605 2.3516 11.7482 2.35551 11.7363 2.35943C11.6795 2.37801 11.6237 2.39901 11.5682 2.42231C11.562 2.42492 11.5556 2.42663 11.5494 2.42934C11.5475 2.43005 11.5463 2.43135 11.5446 2.43205C10.4632 2.90003 9.58724 4.24229 9.14146 6.04697C8.69568 4.24265 7.8198 2.90057 6.73839 2.43231C6.73648 2.43141 6.73507 2.4301 6.73316 2.4294C6.72653 2.42649 6.7196 2.42468 6.71287 2.42176C6.65803 2.39876 6.60258 2.37797 6.54673 2.35959C6.53448 2.35557 6.52213 2.35155 6.50977 2.34773C6.44659 2.32805 6.38251 2.31127 6.31792 2.29751H6.31782C6.17579 2.26728 6.03105 2.25 5.8841 2.25C5.75794 2.25 5.63107 2.26527 5.5055 2.28907C5.48391 2.29299 5.46171 2.296 5.44011 2.30062C5.43077 2.30283 5.42113 2.30354 5.41179 2.30565C5.40244 2.30786 5.39411 2.31187 5.38497 2.31469C4.4485 2.54029 3.75 3.38304 3.75 4.3877C3.75 5.56443 4.70734 6.52219 5.88449 6.52219C6.06088 6.52219 6.20391 6.37915 6.20391 6.20266C6.20391 6.02608 6.06088 5.88324 5.88449 5.88324C5.05983 5.88324 4.38895 5.21235 4.38895 4.3877C4.38895 3.66739 4.90082 3.06462 5.57983 2.9235C5.58515 2.92239 5.59048 2.92179 5.5957 2.92079C5.68931 2.9023 5.78564 2.89216 5.88457 2.89216C6.03645 2.89216 6.18512 2.91516 6.32856 2.95986C7.68529 3.39448 8.76761 5.77634 8.82043 8.58434L8.82032 14.9247C8.82032 15.1014 8.96336 15.2442 9.13985 15.2442C9.14045 15.2442 9.14096 15.2439 9.14146 15.2439C9.14216 15.2439 9.14256 15.2442 9.14316 15.2442C9.31955 15.2442 9.46259 15.1014 9.46259 14.9247V8.58923C9.51432 5.77892 10.5973 3.39443 11.9548 2.95986C12.098 2.91526 12.2468 2.89216 12.3989 2.89216C12.4976 2.89216 12.5938 2.9024 12.6875 2.92079C12.6928 2.92179 12.6981 2.92239 12.7032 2.9235C13.3823 3.06443 13.8942 3.66741 13.8942 4.3877C13.8942 5.21235 13.2234 5.88324 12.3988 5.88324C12.2222 5.88324 12.0792 6.02627 12.0792 6.20266C12.0792 6.37905 12.2223 6.52219 12.3988 6.52219C13.5755 6.52219 14.5331 5.56464 14.5331 4.3877C14.5329 3.38304 13.8341 2.54048 12.898 2.31469L12.898 2.31473Z" fill="#401D73"/>
</svg>
