<svg width="18" height="19" viewBox="0 0 18 19" fill="none" xmlns="http://www.w3.org/2000/svg">
<path d="M12.3044 10.0631C11.701 10.0631 11.1544 10.3106 10.7599 10.7088V4.42907C10.7599 3.50325 9.78455 2.75 8.58593 2.75C7.79553 2.75 7.10445 3.07855 6.72386 3.56694C6.34516 3.08411 5.66073 2.75964 4.87806 2.75964C4.14741 2.75964 3.47352 3.03859 3.07505 3.50556C2.96255 3.63765 2.97832 3.83563 3.11031 3.94823C3.24239 4.06073 3.44038 4.04516 3.55277 3.91298C3.8293 3.58893 4.33696 3.38753 4.87796 3.38753C5.70784 3.38753 6.40907 3.86404 6.40907 4.42775C6.40907 4.4375 6.41107 4.44674 6.41208 4.45638V12.3828H6.41509C6.41409 12.3938 6.41208 12.4041 6.41208 12.4155C6.41208 12.5786 6.53884 12.7108 6.69563 12.7108H6.7564C6.91289 12.7108 7.03995 12.5786 7.03995 12.4155C7.03995 12.4042 7.03774 12.3939 7.03674 12.3828H7.03995V11.4491L7.04005 4.42907C7.04005 3.85924 7.74799 3.378 8.58592 3.378C9.42405 3.378 10.1321 3.85945 10.1321 4.42907V12.0827H10.1292C10.1292 12.0827 10.1269 12.7605 10.1382 12.8016C10.1774 12.9427 10.1973 13.0882 10.1973 13.233C10.1973 14.2386 9.26565 15.0569 8.12034 15.0569C7.6374 15.0569 7.16629 14.9072 6.79436 14.6361C6.65423 14.5338 6.45796 14.5644 6.3557 14.7045C6.25364 14.845 6.28428 15.0412 6.4244 15.1433C6.90302 15.4923 7.5053 15.6847 8.12044 15.6847C9.40957 15.6847 10.4893 14.8623 10.759 13.7666C11.1534 14.1654 11.7003 14.4131 12.3044 14.4131C13.5037 14.4131 14.4793 13.4375 14.4793 12.2382C14.4794 11.0389 13.5038 10.0632 12.3045 10.0632L12.3044 10.0631ZM12.3044 13.7855C11.4692 13.7855 10.7883 13.1197 10.7599 12.2914V12.1852C10.7881 11.3566 11.4692 10.6911 12.3044 10.6911C13.1575 10.6911 13.8516 11.3849 13.8516 12.2383C13.8515 13.0913 13.1574 13.7855 12.3044 13.7855V13.7855Z" fill="#401D73"/>
</svg>
