<svg width="18" height="19" viewBox="0 0 18 19" fill="none" xmlns="http://www.w3.org/2000/svg">
<path d="M15.0844 3.00845C15.0827 2.9985 15.0789 2.98946 15.0761 2.97992C15.0728 2.96937 15.0705 2.95873 15.0664 2.94848C15.0617 2.93713 15.0551 2.92658 15.0492 2.91594C15.045 2.9083 15.0417 2.90037 15.0367 2.89303C15.0134 2.85778 14.9829 2.82734 14.9476 2.80394C14.94 2.79882 14.9317 2.7954 14.9238 2.79108C14.9134 2.78546 14.9033 2.77913 14.8922 2.77471C14.8817 2.77039 14.871 2.76778 14.8601 2.76467C14.8508 2.76195 14.8419 2.75844 14.8321 2.75633C14.8116 2.75211 14.7906 2.75 14.7696 2.75H9.6946C9.51701 2.75 9.37317 2.89404 9.37317 3.07143C9.37317 3.24882 9.51701 3.39286 9.6946 3.39286H13.9935L7.07843 10.3077L4.4458 7.67531C4.32034 7.54976 4.11663 7.54976 3.99117 7.67531C3.86561 7.80087 3.86561 8.00438 3.99117 8.12974L6.6238 10.7621L2.34417 15.042C2.21861 15.1675 2.21861 15.3708 2.34417 15.4964C2.40695 15.5592 2.48921 15.5906 2.57158 15.5906C2.65395 15.5906 2.73621 15.5591 2.79879 15.4964L7.07842 11.2168L9.75887 13.8975C9.82165 13.9603 9.90402 13.9917 9.98608 13.9917C10.0684 13.9917 10.1507 13.9602 10.2133 13.8975C10.3389 13.7717 10.3389 13.5684 10.2133 13.4428L7.53284 10.7621L14.4477 3.84723V8.13406C14.4477 8.31165 14.5915 8.45549 14.7691 8.45549C14.9467 8.45549 15.0905 8.31144 15.0905 8.13406V3.07143C15.0906 3.05023 15.0884 3.02924 15.0841 3.00845L15.0844 3.00845Z" fill="#401D73"/>
</svg>
