<svg width="32" height="39" viewBox="0 0 32 39" fill="none" xmlns="http://www.w3.org/2000/svg">
<path d="M27.2609 0.687004C27.2348 0.678589 27.2107 0.666982 27.1835 0.660888C27.1565 0.654214 27.1277 0.652183 27.1007 0.646379C27.0387 0.633031 26.9751 0.624325 26.9118 0.613009C26.5491 0.544236 26.1832 0.500131 25.8187 0.500131C25.3936 0.500131 24.9763 0.550043 24.5657 0.6371H24.5649C24.378 0.677144 24.1935 0.725314 24.0095 0.782766C23.9749 0.793503 23.9395 0.80482 23.905 0.816137C23.7411 0.86982 23.5797 0.93047 23.4195 0.997788C23.4016 1.00533 23.383 1.01027 23.365 1.0181C23.3595 1.02013 23.3563 1.0239 23.3513 1.02594C20.2273 2.37786 17.6966 6.2555 16.4088 11.469C15.121 6.25654 12.5907 2.37942 9.46661 1.02668C9.4611 1.02407 9.45703 1.02029 9.45152 1.01826C9.43237 1.00985 9.41235 1.00463 9.3929 0.996209C9.23447 0.929758 9.07428 0.869693 8.91295 0.816587C8.87755 0.804979 8.84186 0.793372 8.80617 0.782345C8.62365 0.725471 8.43851 0.677008 8.25193 0.637258H8.25164C7.84133 0.549913 7.4232 0.5 6.99866 0.5C6.6342 0.5 6.2677 0.544107 5.90495 0.612877C5.84256 0.624194 5.77844 0.632899 5.71604 0.646248C5.68906 0.652632 5.6612 0.654663 5.63421 0.660757C5.60722 0.66714 5.58314 0.678748 5.55673 0.686872C2.85139 1.33861 0.833496 3.77322 0.833496 6.67556C0.833496 10.075 3.59915 12.8419 6.9998 12.8419C7.50936 12.8419 7.92258 12.4287 7.92258 11.9188C7.92258 11.4087 7.50937 10.996 6.9998 10.996C4.61746 10.996 2.67935 9.05791 2.67935 6.67556C2.67935 4.59467 4.15808 2.85334 6.11967 2.44566C6.13505 2.44247 6.15043 2.44073 6.16552 2.43783C6.43596 2.38443 6.71424 2.35512 7.00004 2.35512C7.43879 2.35512 7.86829 2.42157 8.28266 2.5507C12.2021 3.80628 15.3288 10.6872 15.4814 18.7992L15.4811 37.1158C15.4811 37.6263 15.8943 38.0389 16.4042 38.0389C16.4059 38.0389 16.4074 38.0381 16.4088 38.0381C16.4108 38.0381 16.412 38.0389 16.4137 38.0389C16.9233 38.0389 17.3365 37.6263 17.3365 37.1158V18.8133C17.486 10.6946 20.6147 3.80613 24.5361 2.5507C24.9499 2.42186 25.3797 2.35512 25.8191 2.35512C26.1043 2.35512 26.3823 2.38472 26.6531 2.43783C26.6682 2.44073 26.6835 2.44247 26.6983 2.44566C28.6602 2.85278 30.139 4.59475 30.139 6.67556C30.139 9.05791 28.2011 10.996 25.8188 10.996C25.3087 10.996 24.8957 11.4092 24.8957 11.9188C24.8957 12.4284 25.3089 12.8419 25.8188 12.8419C29.2183 12.8419 31.9848 10.0756 31.9848 6.67556C31.9842 3.77322 29.9654 1.33918 27.261 0.686872L27.2609 0.687004Z" fill="#5D3AE2"/>
</svg>
