<svg width="18" height="19" viewBox="0 0 18 19" fill="none" xmlns="http://www.w3.org/2000/svg">
<path d="M13.7725 9.20087C13.7725 9.02529 13.6303 8.88306 13.4547 8.88306H10.423C10.498 5.58083 11.7377 3.38561 12.8979 3.38561C13.0734 3.38561 13.2156 3.24337 13.2156 3.0678C13.2156 2.89223 13.0734 2.75 12.8979 2.75C11.203 2.75 9.86486 5.41914 9.78746 8.88286H7.45268C7.37524 5.41889 6.03698 2.75 4.34228 2.75C4.1667 2.75 4.02448 2.89223 4.02448 3.0678C4.02448 3.24337 4.16671 3.38561 4.34228 3.38561C5.50254 3.38561 6.74215 5.58086 6.81718 8.88306H4.22724C4.05166 8.88306 3.90943 9.02529 3.90943 9.20087C3.90943 9.37644 4.05167 9.51857 4.22724 9.51857H6.81718C6.74215 12.8211 5.50243 15.016 4.34228 15.016C4.27358 15.016 4.20387 15.0084 4.13496 14.9935C3.9645 14.9563 3.79445 15.0653 3.75727 15.2369C3.72011 15.4084 3.82909 15.5776 4.00065 15.6146C4.11365 15.6391 4.22856 15.6516 4.34237 15.6516C6.03709 15.6516 7.37537 12.9824 7.45277 9.51844H9.78755C9.86499 12.9824 11.2032 15.6516 12.8979 15.6516C13.0116 15.6516 13.1267 15.639 13.2398 15.6146C13.4111 15.5776 13.5201 15.4084 13.4831 15.2369C13.4462 15.0655 13.2768 14.9561 13.1055 14.9935C13.0364 15.0085 12.9665 15.016 12.8979 15.016C11.7377 15.016 10.4982 12.8209 10.423 9.51857H13.4548C13.63 9.51857 13.7725 9.37643 13.7725 9.20087H13.7725Z" fill="#401D73"/>
</svg>
